<svg id="Layer_1" enable-background="new 0 0 512 512" height="512" viewBox="0 0 512 512" width="512" xmlns="http://www.w3.org/2000/svg"><g><path d="m496.547 245.561h-172.081c-8.534 0-15.453 6.922-15.453 15.461s6.919 15.461 15.453 15.461h172.082c8.534 0 15.453-6.922 15.453-15.461-.001-8.538-6.92-15.461-15.454-15.461z" fill="#ffd54f"/><path d="m377.685 294.068c0 101.897-60.547 146.432-135.236 146.432s-135.236-44.536-135.236-146.432 99.999-222.568 135.236-222.568 135.236 120.671 135.236 222.568z" fill="#f75632"/><path d="m345.468 305.608c-6.034-6.038-15.819-6.038-21.853 0l-34.785 34.803-108.315-108.372c-6.034-6.038-15.819-6.038-21.853 0l-66.165 66.2h-77.044c-8.534 0-15.453 6.922-15.453 15.461s6.919 15.461 15.453 15.461h83.445c4.098 0 8.029-1.629 10.927-4.529l59.765-59.796 108.315 108.372c3.017 3.019 6.972 4.529 10.927 4.529s7.909-1.509 10.927-4.529l45.711-45.735c6.033-6.038 6.033-15.827-.002-21.865z" fill="#ffd54f"/></g></svg>