<?xml version="1.0" standalone="no"?>
<!DOCTYPE svg PUBLIC "-//W3C//DTD SVG 20010904//EN"
 "http://www.w3.org/TR/2001/REC-SVG-20010904/DTD/svg10.dtd">
<svg version="1.0" xmlns="http://www.w3.org/2000/svg"
 width="2000.000000pt" height="2007.000000pt" viewBox="0 0 2000.000000 2007.000000"
 preserveAspectRatio="xMidYMid meet">

<g transform="translate(0.000000,2007.000000) scale(0.100000,-0.100000)"
fill="#000000" stroke="none">
<path d="M16430 16234 c-149 -23 -255 -56 -390 -124 -172 -86 -345 -229 -457
-375 -63 -82 -126 -222 -152 -334 -27 -118 -113 -287 -190 -372 -86 -96 -205
-168 -401 -242 -162 -62 -237 -70 -325 -38 -27 10 -94 35 -147 55 -182 67
-340 99 -758 155 -220 30 -235 31 -655 31 l-430 1 -155 -30 c-85 -16 -181 -36
-212 -42 -60 -14 -66 -13 -563 41 -216 24 -349 25 -470 5 -191 -31 -262 -21
-870 132 -462 115 -317 109 -1300 53 -187 -11 -443 -24 -570 -30 -278 -13
-381 -23 -545 -56 -197 -40 -428 -106 -810 -234 -404 -136 -456 -150 -560
-150 -103 0 -160 18 -302 93 -68 35 -184 93 -258 127 -340 157 -355 167 -447
283 -69 88 -112 130 -226 218 -87 68 -90 69 -148 69 l-59 0 6 -27 c16 -65 36
-108 67 -142 47 -52 181 -239 206 -287 18 -34 20 -48 12 -88 -10 -52 -15 -61
-48 -70 -16 -5 -23 -2 -28 14 -12 38 -126 150 -209 204 -45 30 -113 70 -152
89 -92 46 -343 147 -366 147 -15 0 -95 -27 -107 -36 -2 -2 5 -26 15 -55 21
-58 60 -97 137 -135 89 -45 544 -373 497 -359 -47 14 -296 123 -516 225 -258
121 -283 130 -341 130 -63 0 -83 -13 -83 -56 0 -55 24 -99 72 -131 23 -17 167
-106 318 -198 297 -181 343 -211 407 -263 36 -29 41 -37 32 -53 -18 -35 -104
-24 -432 51 -167 39 -320 70 -340 70 -29 0 -107 -22 -125 -35 -5 -4 50 -114
61 -123 17 -14 304 -118 687 -249 546 -186 630 -225 671 -305 29 -57 21 -120
-26 -203 -19 -35 -42 -91 -51 -125 -15 -58 -14 -79 2 -161 4 -22 -1 -28 -36
-44 -39 -18 -41 -18 -61 1 -19 17 -19 19 -3 31 17 12 17 13 -2 13 -23 0 -69
45 -79 78 -5 18 6 36 60 96 56 64 64 76 49 84 -13 7 -14 13 -5 30 14 27 14 32
-1 31 -14 0 -71 -85 -112 -166 -22 -45 -31 -53 -55 -53 -42 0 -91 28 -91 52 0
11 8 48 17 83 14 53 15 68 4 92 -12 27 -13 27 -28 8 -10 -14 -14 -42 -12 -95
3 -114 4 -110 -38 -109 -87 3 -95 9 -120 79 -12 36 -23 84 -23 108 0 49 -24
102 -45 102 -22 0 -19 -59 5 -120 24 -61 25 -80 5 -80 -8 0 -15 -4 -15 -10 0
-5 7 -7 15 -4 21 8 38 -36 21 -54 -15 -15 -46 -6 -46 14 0 23 -22 63 -38 69
-36 14 -31 -54 6 -83 15 -12 13 -17 -32 -55 -27 -23 -69 -61 -93 -84 l-45 -42
-44 41 c-24 23 -47 39 -49 36 -3 -3 8 -25 25 -49 16 -24 30 -51 30 -60 0 -9
-20 -37 -44 -63 l-44 -48 -81 8 c-57 4 -81 3 -81 -5 0 -11 12 -15 85 -26 105
-17 78 -73 -42 -88 -38 -4 -43 -3 -43 14 0 21 -29 26 -48 7 -16 -16 3 -48 28
-48 11 0 20 -4 20 -10 0 -18 49 -42 92 -45 l43 -3 14 -65 c19 -89 11 -111 -47
-141 -54 -27 -77 -50 -67 -66 11 -18 36 -11 78 25 44 38 71 44 81 19 15 -40 5
-62 -55 -117 -61 -56 -67 -72 -35 -91 14 -9 23 -4 54 32 20 23 40 42 45 42 14
0 7 -40 -15 -85 -21 -42 -21 -46 -5 -62 15 -16 18 -15 37 2 14 13 20 31 20 62
0 50 14 83 35 83 23 0 92 -67 103 -100 9 -25 7 -34 -17 -68 -27 -37 -28 -40
-14 -74 28 -70 66 -55 79 31 13 88 18 94 72 87 26 -4 70 -9 97 -13 72 -8 76
-14 69 -89 -6 -55 -4 -65 10 -70 10 -4 24 -1 31 7 12 12 12 22 -1 68 -15 50
-15 54 2 72 12 11 37 19 69 21 l50 3 10 -54 c13 -68 35 -85 67 -53 15 14 19
25 12 30 -42 29 -56 101 -26 138 21 27 59 47 72 39 6 -4 23 -35 39 -70 29 -63
52 -85 89 -85 13 0 21 9 25 26 4 21 -2 33 -30 57 -60 53 -79 120 -50 177 21
41 43 36 108 -24 59 -55 82 -66 94 -46 13 21 -9 52 -65 90 -65 44 -76 63 -60
106 14 37 59 84 80 84 8 0 32 -11 52 -25 62 -42 90 -26 48 28 -11 14 -20 29
-20 35 0 5 -21 17 -46 27 -81 31 -155 128 -170 226 -6 36 -4 44 17 60 13 10
27 19 30 19 4 0 25 -30 48 -66 43 -68 87 -98 155 -106 27 -3 31 1 38 32 4 19
5 81 1 137 l-6 102 31 -1 c17 -1 38 5 47 12 29 24 13 78 -27 93 -46 16 466
400 576 432 95 27 1050 113 1356 122 169 4 238 1 520 -26 726 -68 1014 -64
1432 19 238 48 394 36 538 -41 60 -32 155 -105 164 -126 3 -8 -74 -60 -212
-142 -260 -155 -421 -260 -703 -462 -273 -195 -320 -225 -386 -246 -47 -15
-63 -15 -127 -5 -92 16 -127 6 -281 -83 -60 -35 -144 -80 -187 -101 l-76 -38
23 -18 c62 -49 179 -63 265 -33 61 22 79 19 140 -19 111 -70 131 -78 172 -72
40 7 41 6 42 -44 1 -13 8 -26 16 -28 8 -1 62 21 120 50 77 39 110 62 125 85
13 21 28 32 43 33 21 0 17 -8 -38 -81 -34 -44 -72 -85 -85 -91 -20 -9 -23 -19
-27 -90 l-5 -80 69 -166 c68 -165 69 -167 49 -183 -11 -9 -37 -19 -59 -22 -21
-4 -46 -15 -55 -25 -16 -17 -15 -21 12 -58 32 -43 91 -89 160 -124 42 -21 46
-21 78 -6 19 9 52 16 73 16 36 0 40 -2 40 -26 0 -14 5 -34 10 -45 9 -15 7 -19
-7 -20 -13 0 -11 -3 7 -10 20 -8 22 -12 10 -19 -10 -6 -20 -4 -31 6 -14 12
-18 12 -33 -5 -13 -15 -14 -20 -4 -24 7 -3 -1 -6 -19 -6 -18 -1 -43 4 -57 10
-20 10 -31 8 -63 -11 -60 -36 -84 -61 -77 -82 3 -10 1 -18 -5 -18 -19 0 -12
-20 21 -61 28 -35 36 -39 75 -39 53 0 76 11 124 57 27 26 44 34 64 31 52 -6
36 -24 -56 -64 -107 -45 -139 -77 -123 -121 8 -24 15 -28 47 -28 55 0 59 -17
24 -85 -20 -40 -27 -64 -22 -77 5 -10 7 -22 6 -27 -4 -17 28 -53 58 -66 30
-12 31 -15 31 -71 0 -48 -3 -57 -15 -53 -8 4 -21 1 -29 -5 -8 -7 -30 -13 -50
-14 -51 -5 -79 -33 -71 -73 3 -18 0 -44 -7 -59 -9 -21 -9 -31 0 -46 15 -23 4
-24 -42 -3 -19 9 -41 14 -50 11 -20 -8 -55 -79 -41 -84 26 -9 76 -45 82 -59
13 -34 -14 -36 -52 -3 l-37 33 -37 -21 c-25 -15 -35 -28 -34 -42 2 -12 -2 -21
-7 -21 -6 0 -10 7 -10 15 0 24 -45 18 -78 -10 -16 -14 -37 -43 -46 -65 -9 -22
-17 -40 -19 -40 -1 0 -20 9 -42 20 -47 24 -86 25 -126 4 -28 -14 -32 -14 -63
5 -40 25 -65 26 -104 4 -28 -16 -30 -16 -65 11 -25 19 -42 26 -57 21 -22 -7
-60 -60 -60 -84 0 -7 -11 -26 -25 -43 -14 -16 -25 -28 -25 -26 0 2 7 25 15 52
19 62 19 63 -5 69 -30 8 -25 30 5 25 22 -5 25 -2 25 23 0 16 -5 29 -11 29 -6
0 -27 17 -45 37 -27 30 -41 37 -71 37 -33 0 -44 -8 -109 -78 -50 -55 -77 -77
-88 -73 -10 4 -33 -9 -63 -37 -41 -38 -45 -46 -34 -60 7 -9 26 -16 41 -16 37
0 42 -8 23 -41 -24 -41 -6 -74 49 -90 55 -16 54 -16 35 -37 -25 -27 2 -62 48
-62 l34 0 -16 -29 c-16 -27 -16 -31 15 -110 66 -166 66 -222 1 -297 -28 -32
-37 -50 -30 -57 7 -7 17 -5 31 8 19 17 21 17 46 0 23 -15 30 -15 51 -4 22 12
27 11 38 -4 7 -9 21 -17 32 -17 12 0 25 -11 32 -26 8 -19 17 -25 31 -21 14 4
20 0 20 -13 0 -10 7 -23 15 -30 8 -7 15 -18 15 -25 0 -7 9 -24 21 -39 15 -19
19 -34 14 -55 -3 -16 -2 -32 3 -35 17 -10 1 -109 -21 -134 -12 -12 -22 -30
-23 -39 -3 -21 -85 -104 -96 -97 -5 3 -20 3 -34 0 -18 -5 -24 -13 -24 -33 0
-25 -1 -25 -19 -9 -15 14 -29 16 -58 12 -26 -5 -48 -2 -71 9 -18 9 -39 14 -47
11 -8 -3 -32 15 -59 44 -24 28 -49 50 -56 50 -7 0 -10 7 -6 15 3 8 -4 24 -16
35 l-21 20 -41 -38 c-23 -20 -51 -44 -64 -52 -21 -14 -23 -23 -24 -128 -2
-113 0 -122 35 -134 4 -2 1 -23 -8 -47 -19 -55 -19 -54 5 -46 14 5 20 2 20 -9
0 -9 -6 -16 -13 -16 -15 0 -51 -63 -45 -80 3 -11 -15 -37 -69 -96 -12 -13 -33
-24 -48 -24 -18 0 -28 -7 -35 -25 -10 -26 -24 -32 -35 -15 -11 18 -32 11 -38
-12 -6 -21 -7 -21 -26 -4 -17 15 -23 16 -36 6 -12 -10 -18 -8 -34 11 -19 23
-20 23 -26 4 -29 -87 -47 -101 -43 -33 2 33 -2 44 -21 57 -21 14 -58 51 -129
128 -13 14 -21 32 -18 39 9 23 -23 78 -55 97 -39 22 -73 97 -65 141 12 57 76
114 116 101 15 -5 20 -2 21 12 0 14 2 13 9 -5 8 -19 13 -21 30 -12 11 6 24 9
29 6 14 -9 27 15 40 74 11 51 10 61 -13 129 -14 40 -23 77 -20 82 13 21 24 6
30 -41 4 -28 11 -53 15 -56 5 -3 9 -27 9 -54 0 -59 12 -69 36 -32 19 28 23 79
10 122 -4 14 -10 36 -13 50 -8 37 12 13 27 -32 11 -36 30 -52 30 -25 0 8 13
11 44 9 24 -2 53 1 64 7 16 8 21 7 26 -4 3 -8 16 -15 29 -15 13 0 27 -3 31 -7
4 -5 11 -8 15 -8 14 0 61 -44 61 -57 0 -18 31 -48 49 -48 17 0 101 50 101 60
0 13 -29 20 -36 9 -3 -5 -13 -9 -22 -7 -10 1 -23 -2 -31 -6 -10 -7 -19 -3 -29
12 -8 12 -21 22 -29 22 -7 0 -16 7 -20 16 -3 8 -15 19 -27 24 -20 8 -46 51
-77 127 -18 43 -45 54 -97 40 -37 -10 -45 -9 -72 11 -28 21 -31 22 -55 6 -27
-18 -24 -20 -40 32 -3 8 -13 14 -22 13 -33 -3 -43 1 -43 16 0 10 -10 15 -34
15 -47 0 -93 40 -103 88 l-7 37 -7 -55 c-4 -30 -13 -122 -19 -203 -12 -143
-12 -149 8 -170 32 -36 41 -62 36 -103 -10 -71 -14 -84 -30 -84 -8 0 -18 -8
-21 -17 -4 -10 -11 -21 -15 -24 -11 -7 -34 -329 -25 -352 4 -10 17 -17 32 -17
15 0 41 -15 65 -36 36 -32 40 -41 40 -83 0 -79 -53 -140 -124 -144 -43 -2 -41
7 -56 -239 -13 -222 -13 -211 3 -202 9 6 9 4 1 -7 -19 -23 -28 -140 -12 -150
10 -7 11 -12 1 -29 -9 -13 -13 -61 -13 -140 0 -66 -1 -120 -2 -120 -2 0 -38 7
-82 15 -55 11 -82 12 -91 5 -9 -8 -14 -7 -17 1 -2 7 -34 16 -74 20 -95 11
-266 11 -260 0 3 -4 -8 -7 -24 -5 -28 3 -29 3 -12 -15 9 -9 23 -16 30 -13 6 2
12 -1 12 -7 0 -7 -13 -17 -29 -22 -27 -10 -29 -14 -27 -58 1 -26 5 -52 9 -58
4 -6 3 -14 -3 -18 -5 -3 -10 -13 -10 -21 0 -8 4 -12 10 -9 6 3 10 1 10 -4 0
-6 -4 -11 -10 -11 -19 0 -10 -20 21 -51 21 -20 28 -35 24 -49 -3 -11 3 -37 16
-62 28 -56 26 -54 49 -33 11 10 20 13 20 7 0 -7 6 -12 13 -12 6 -1 25 -11 41
-24 16 -14 36 -21 47 -19 11 3 25 0 32 -6 8 -6 17 -8 21 -4 3 4 13 -3 22 -15
12 -18 19 -20 35 -11 13 6 19 18 17 32 -2 17 1 21 17 19 28 -5 86 -67 79 -85
-3 -9 2 -29 11 -47 12 -24 21 -30 36 -25 13 5 19 2 19 -10 0 -9 5 -13 11 -9 6
3 9 15 6 25 -3 11 3 23 17 33 21 13 25 12 51 -8 28 -22 30 -23 44 -5 9 10 32
20 52 22 20 3 42 7 47 11 15 9 34 -31 27 -55 -6 -17 -4 -20 12 -15 39 12 103
16 103 6 0 -5 7 -10 15 -10 8 0 15 -9 15 -21 0 -16 4 -19 20 -14 20 6 22 4 24
-49 2 -25 52 -41 64 -20 4 8 22 16 39 17 17 1 29 5 26 10 -2 4 3 7 11 7 19 0
22 -50 4 -68 -8 -8 -9 -12 -1 -12 6 0 19 8 29 17 16 16 16 16 10 -4 -5 -16 -2
-23 14 -28 11 -4 18 -10 15 -15 -3 -4 2 -10 10 -14 25 -9 26 11 0 38 -13 14
-21 26 -16 26 11 0 48 -29 37 -30 -5 0 -3 -7 4 -15 10 -12 10 -18 -1 -32 -12
-15 -12 -16 3 -11 17 7 33 -16 22 -33 -3 -6 4 -7 19 -4 14 4 28 2 31 -4 5 -7
1 -8 -9 -5 -8 4 -21 1 -29 -5 -14 -12 -27 -1 -59 52 -10 15 -24 27 -31 27 -7
0 -19 7 -26 15 -7 9 -19 14 -27 11 -7 -3 -13 1 -13 9 0 8 -4 15 -10 15 -5 0
-10 7 -10 15 0 8 -7 15 -15 15 -8 0 -15 -5 -15 -11 0 -7 -11 -8 -29 -4 -17 3
-39 1 -50 -5 -12 -6 -21 -7 -21 -1 0 5 -3 17 -7 27 -4 12 -3 15 5 10 8 -5 12
2 12 19 0 23 -3 26 -23 21 -31 -7 -67 3 -67 20 0 8 6 11 15 8 8 -3 20 -2 27 2
9 6 6 10 -12 15 -38 11 -98 10 -102 -1 -1 -5 -13 -7 -25 -4 -20 6 -21 8 -9 26
8 11 12 27 9 37 -4 18 -6 18 -44 0 -21 -11 -44 -18 -51 -17 -7 2 -12 -4 -13
-12 0 -11 -11 -15 -39 -15 -22 0 -41 -6 -44 -13 -2 -7 -11 -12 -20 -13 -11 0
-12 -2 -4 -6 6 -2 12 -14 12 -24 0 -11 -4 -17 -10 -14 -5 3 -10 -1 -10 -9 0
-8 6 -13 13 -10 9 3 13 -5 12 -25 0 -22 -4 -28 -18 -25 -11 2 -15 -1 -11 -8 5
-8 1 -9 -11 -4 -16 6 -16 4 -4 -10 13 -16 11 -17 -14 -10 -18 4 -26 3 -23 -3
4 -5 1 -13 -5 -17 -8 -4 -7 -9 2 -15 11 -7 10 -9 -3 -9 -16 0 -17 5 -9 64 0 4
8 6 16 2 9 -3 15 0 15 10 0 10 -6 14 -15 10 -8 -3 -15 -1 -15 4 0 6 5 10 12
10 6 0 9 3 6 6 -4 3 -19 -1 -36 -10 -16 -8 -32 -13 -36 -11 -3 3 -3 2 0 -2 8
-11 28 -10 36 2 5 6 8 3 8 -7 0 -10 -7 -18 -15 -18 -8 0 -15 -5 -15 -11 0 -5
4 -8 9 -5 5 4 7 -3 4 -14 -3 -11 -10 -20 -15 -20 -6 0 -5 -6 2 -15 7 -8 15
-13 19 -11 4 3 8 -4 8 -15 1 -13 -7 -24 -25 -31 l-27 -10 23 -9 c13 -5 21 -13
18 -18 -3 -5 3 -7 14 -4 11 3 20 0 20 -6 0 -6 -14 -11 -31 -11 -16 0 -28 -4
-25 -9 3 -5 -1 -14 -9 -21 -10 -8 -11 -18 -5 -35 5 -13 7 -26 4 -29 -2 -3 2
-2 8 4 7 5 17 10 23 10 5 0 4 -4 -4 -9 -8 -5 -11 -16 -8 -26 4 -9 11 -13 17
-10 18 11 10 -4 -15 -29 -14 -14 -25 -32 -25 -41 0 -8 -4 -15 -10 -15 -5 0
-10 -7 -10 -15 0 -8 -8 -15 -17 -15 -13 0 -15 2 -5 8 13 9 6 42 -9 42 -5 0 -9
7 -9 15 0 8 -6 15 -14 15 -9 0 -12 7 -9 20 3 12 0 20 -6 20 -7 0 -10 -4 -6 -9
8 -15 -15 -25 -28 -12 -8 8 -8 11 1 11 7 0 12 4 12 8 0 4 -9 8 -20 8 -26 0
-25 -10 1 -35 13 -12 17 -21 10 -26 -7 -4 -5 -14 6 -30 12 -14 22 -20 29 -14
7 5 11 3 11 -6 0 -7 -3 -14 -6 -13 -26 3 -41 -4 -35 -14 5 -9 2 -8 -9 1 -12 9
-14 17 -8 25 13 16 0 35 -24 35 -40 1 -55 4 -55 13 0 4 -7 8 -16 8 -11 0 -14
-5 -10 -16 3 -9 6 -18 6 -20 0 -2 8 -4 17 -4 14 0 13 -3 -5 -16 -22 -15 -25
-15 -46 5 l-23 22 -37 -22 c-42 -25 -43 -27 -13 -25 13 1 21 -4 20 -11 -3 -12
10 -17 30 -14 5 1 5 -4 1 -10 -5 -9 0 -10 15 -6 13 3 20 3 17 0 -3 -3 2 -11
11 -18 9 -7 18 -22 20 -33 4 -26 -24 -36 -62 -22 l-28 10 29 25 c26 22 27 25
9 25 -11 0 -28 -9 -38 -20 -10 -12 -22 -18 -27 -15 -5 3 -7 -3 -5 -14 3 -14
-1 -18 -16 -14 -10 3 -19 1 -19 -5 0 -6 13 -13 28 -17 16 -3 29 -12 29 -20 0
-10 -5 -11 -19 -4 -12 6 -25 6 -37 -1 -26 -13 -31 -13 -31 4 0 19 -26 40 -35
26 -3 -5 1 -10 9 -10 9 0 16 -4 16 -10 0 -5 -13 -7 -29 -4 -16 3 -39 1 -51 -6
-16 -9 -20 -9 -15 -1 5 8 -1 10 -20 5 -18 -4 -25 -3 -23 6 2 6 -6 17 -17 23
-11 7 -22 15 -25 18 -3 4 -12 9 -20 12 -8 2 -3 3 13 1 15 -2 27 1 27 7 0 6 -4
7 -10 4 -6 -4 -10 5 -10 20 0 20 -4 26 -16 21 -8 -3 -12 -2 -9 4 3 6 1 10 -4
10 -6 0 -11 4 -11 10 0 5 6 7 14 4 7 -3 16 2 20 11 3 10 2 14 -5 9 -8 -4 -7 0
0 15 7 11 17 21 24 21 8 0 7 4 -3 10 -9 5 -17 5 -20 0 -3 -5 -11 4 -17 20 -6
17 -8 28 -5 26 4 -2 13 2 19 9 10 11 8 15 -9 21 -19 6 -19 7 -5 16 10 5 22 6
29 2 7 -5 8 -3 3 6 -5 8 -4 11 2 7 5 -3 8 -20 5 -38 -3 -21 -1 -30 6 -25 15 9
26 -68 13 -93 -14 -25 -14 -34 -1 -26 6 3 10 1 10 -4 0 -6 -4 -11 -10 -11 -5
0 -10 -4 -10 -10 0 -18 18 -11 25 10 3 11 12 20 19 20 8 0 19 7 26 15 9 11 17
12 31 4 14 -7 19 -6 19 2 0 7 10 9 25 6 14 -2 23 -2 20 1 -3 3 2 13 11 23 14
16 14 18 -5 24 -12 3 -21 10 -21 15 0 5 -3 16 -7 26 -4 11 -3 15 4 11 15 -9
-6 62 -24 84 -7 8 -13 20 -13 26 0 6 -7 14 -16 17 -8 3 -12 10 -9 16 3 5 -1
10 -9 10 -9 0 -15 -3 -15 -7 3 -21 -3 -25 -18 -10 -18 15 -21 17 -45 17 -10 0
-10 2 0 9 11 6 11 10 0 18 -21 16 -48 23 -48 13 0 -6 5 -10 11 -10 7 0 9 -10
5 -25 -5 -18 -2 -25 9 -25 8 0 15 -8 15 -17 0 -15 -2 -16 -10 -3 -8 13 -10 12
-10 -2 0 -12 8 -18 23 -18 12 0 29 -5 37 -11 12 -8 8 -10 -17 -7 -19 3 -31 0
-30 -6 1 -6 -13 -12 -30 -14 -20 -2 -33 1 -33 8 0 6 4 9 8 6 4 -2 9 4 9 15 1
10 -3 19 -8 19 -6 0 -7 -4 -4 -10 11 -18 -6 -11 -37 15 -16 14 -35 22 -41 18
-7 -3 -9 -2 -4 2 8 9 -20 45 -35 45 -20 0 31 -172 87 -298 20 -45 31 -59 37
-50 7 9 8 6 5 -9 -6 -29 27 -73 56 -74 13 -1 16 -3 7 -5 -13 -4 -8 -20 23 -85
l39 -80 34 20 34 20 23 -34 c27 -42 45 -50 67 -30 9 8 26 15 38 15 18 0 22 -6
22 -34 0 -43 20 -62 50 -46 34 18 53 5 45 -30 -8 -38 6 -57 51 -66 47 -9 58
-25 50 -79 -7 -45 -7 -46 28 -60 41 -17 43 -23 20 -68 -16 -31 -16 -31 13 -57
24 -19 31 -36 35 -73 5 -39 2 -50 -11 -54 -39 -14 -42 -24 -20 -60 l22 -35
-28 -22 c-24 -19 -27 -27 -21 -57 14 -70 13 -73 -19 -79 -27 -5 -30 -9 -33
-47 -3 -38 -5 -41 -38 -47 -42 -8 -47 -36 -6 -36 15 0 33 -4 41 -9 13 -8 13
-12 1 -26 -11 -13 -28 -16 -84 -13 l-71 3 -20 -37 c-17 -32 -25 -37 -60 -40
-31 -2 -44 -9 -61 -35 l-21 -32 -22 30 c-35 47 -64 39 -95 -25 -32 -66 -229
-265 -278 -282 -18 -6 -35 -19 -36 -28 -3 -15 2 -16 31 -11 47 9 56 -9 23 -44
-51 -53 -22 -111 56 -111 27 0 40 -5 48 -20 12 -22 6 -26 -40 -32 -40 -5 -38
-36 5 -54 39 -16 42 -37 7 -42 -35 -5 -27 -40 13 -64 43 -25 41 -37 -10 -55
-50 -17 -65 -31 -65 -58 0 -16 11 -27 41 -40 42 -19 65 -48 53 -66 -6 -11 -48
-8 -92 6 -19 6 -21 5 -15 -11 5 -13 3 -16 -10 -11 -28 11 -19 -7 13 -26 35
-21 39 -43 10 -52 -13 -4 -31 2 -52 16 -30 22 -32 22 -42 4 -6 -10 -21 -29
-33 -42 -22 -22 -22 -25 -7 -48 29 -44 -7 -61 -53 -26 -25 21 -45 19 -75 -7
-15 -13 -15 -17 -1 -47 32 -67 -21 -93 -58 -30 -24 41 -31 43 -51 13 -15 -22
-94 -50 -140 -49 -16 0 -28 -5 -28 -12 0 -7 -5 -19 -10 -27 -8 -12 -13 -11
-33 9 -16 14 -27 19 -32 12 -12 -20 -35 -11 -48 17 -20 47 -47 52 -47 8 0 -39
-22 -59 -51 -47 -20 7 -29 21 -37 54 -14 52 -32 63 -74 41 -42 -22 -62 -12
-54 26 5 27 1 33 -27 51 -24 15 -43 19 -74 15 -62 -8 -75 17 -48 100 5 17 0
23 -27 35 -18 7 -53 14 -77 14 -37 0 -47 4 -61 27 l-16 27 -195 -154 c-106
-85 -213 -170 -237 -189 -49 -39 -42 -52 20 -36 78 21 135 51 146 76 16 33 35
30 66 -11 19 -24 37 -36 64 -41 20 -3 47 -13 60 -21 16 -9 34 -12 55 -7 44 9
133 49 164 74 14 11 29 20 34 20 12 0 50 -76 42 -84 -10 -9 -62 -7 -82 4 -15
8 -28 0 -69 -44 -28 -30 -54 -66 -58 -82 -6 -24 3 -89 22 -161 5 -17 -9 -38
-65 -98 -49 -53 -71 -84 -71 -102 0 -15 -12 -36 -30 -53 l-30 -28 -15 29 c-17
32 -36 37 -54 15 -14 -17 -75 -27 -152 -26 -70 1 -89 -15 -59 -53 11 -14 20
-32 20 -41 0 -18 -32 -35 -37 -20 -2 5 -12 24 -23 42 l-21 34 -42 -25 c-29
-17 -48 -22 -62 -16 -11 4 -38 8 -60 9 -40 1 -118 47 -136 80 -43 81 -52 147
-28 214 24 64 40 80 116 118 35 17 63 33 63 36 0 3 -12 25 -26 50 -14 24 -24
52 -21 62 3 11 -1 21 -10 24 -31 12 -98 5 -137 -14 -86 -41 -326 -307 -258
-286 26 8 52 -2 52 -21 0 -15 -23 -15 -61 1 -20 9 -53 -62 -119 -253 -37 -104
-52 -137 -72 -149 -57 -34 -99 -132 -119 -271 -10 -69 -9 -77 13 -120 60 -116
294 -242 645 -345 92 -28 131 -35 161 -30 34 5 42 3 51 -13 14 -28 128 -45
311 -49 201 -3 266 -27 397 -146 101 -91 276 -157 475 -178 164 -17 611 -23
808 -11 382 24 516 64 642 194 107 111 113 236 15 340 -74 78 -195 110 -492
129 -184 11 -245 24 -229 49 3 5 -59 74 -138 152 -154 154 -264 236 -399 297
l-76 34 -10 178 c-9 150 -15 185 -34 224 -16 34 -19 51 -12 63 13 22 145 113
213 147 73 36 213 123 222 137 3 6 13 12 22 13 19 3 247 134 261 150 6 6 25
18 43 25 17 8 32 17 32 21 0 5 11 8 25 8 14 0 28 7 31 15 4 8 10 13 14 10 11
-7 221 94 242 115 10 11 15 26 11 40 -5 20 -4 21 15 11 17 -9 23 -8 34 8 18
25 20 26 46 12 19 -10 28 -10 47 3 18 12 25 13 29 3 5 -9 7 -9 12 1 3 6 16 12
28 12 12 0 31 6 42 14 11 8 31 16 44 18 17 2 24 8 22 21 -4 22 24 23 36 0 13
-22 45 -9 38 15 -4 12 3 29 19 46 19 21 25 23 25 10 0 -13 3 -14 14 -5 11 9
20 9 35 2 29 -16 61 -14 61 4 0 8 6 15 14 15 8 0 16 5 18 11 2 6 20 13 41 15
28 4 37 1 37 -11 0 -20 12 -19 38 5 22 21 72 28 72 10 0 -5 5 -10 10 -10 6 0
8 11 4 25 -5 19 -2 25 10 25 9 0 16 4 16 10 0 18 47 22 73 5 23 -15 25 -15 32
2 5 10 7 21 7 26 -3 12 10 8 30 -10 15 -14 21 -14 27 -4 5 7 11 12 15 12 26
-4 37 1 33 13 -3 8 1 17 9 20 8 3 14 12 14 20 0 10 -6 13 -15 10 -8 -4 -15 -1
-15 6 0 6 9 14 20 17 11 3 20 10 20 15 0 6 6 6 14 -1 20 -17 76 38 76 74 0 17
6 25 17 25 15 0 15 2 -1 19 -25 28 -16 62 22 87 18 13 37 24 42 26 18 6 22 74
5 88 -8 7 -15 20 -15 29 -1 14 -2 14 -11 -1 -5 -10 -14 -18 -19 -18 -15 0 -12
28 3 33 9 4 9 6 0 6 -7 1 -10 8 -7 16 4 8 1 15 -6 15 -12 0 -40 24 -40 34 0 3
6 3 13 0 8 -3 14 2 14 10 0 22 -25 28 -36 8 -6 -9 -11 -13 -11 -9 0 4 7 18 15
31 14 21 13 24 -5 41 -11 10 -20 14 -20 9 0 -5 -7 1 -15 13 -10 14 -22 20 -33
16 -11 -3 -9 1 6 11 12 10 20 22 17 27 -3 5 1 6 9 3 20 -8 20 5 2 32 -8 11
-11 26 -7 33 6 9 12 3 21 -21 7 -18 12 -37 11 -41 -1 -5 4 -5 10 -1 7 4 10 1
7 -7 -3 -8 -11 -14 -19 -14 -7 0 -15 -8 -17 -17 -2 -11 3 -18 11 -18 8 0 18
-8 21 -17 6 -14 9 -15 15 -4 6 9 11 10 15 2 4 -6 4 -11 1 -11 -4 0 1 -7 9 -16
9 -8 22 -13 29 -11 9 4 9 6 0 6 -7 1 -13 5 -13 11 0 15 -33 50 -42 44 -4 -3
-7 5 -5 17 2 12 12 23 21 25 42 6 45 11 34 50 -5 20 -8 50 -6 65 4 25 2 27
-26 24 -46 -3 -48 -4 -41 -15 7 -12 -5 -13 -23 -2 -9 6 0 13 28 22 22 7 47 13
55 13 8 0 19 13 24 29 11 32 31 38 31 9 0 -10 7 -21 15 -24 11 -5 12 -1 5 18
-6 16 -5 25 3 29 9 3 9 5 0 5 -7 1 -13 9 -13 19 0 14 -2 15 -10 2 -8 -13 -10
-12 -10 3 0 9 -7 17 -15 17 -8 0 -15 -6 -15 -14 0 -22 -19 -30 -35 -16 -14 12
-20 7 -15 -15 1 -5 -4 -4 -12 3 -10 10 -10 17 0 32 15 24 -1 35 -21 15 -9 -8
-23 -15 -31 -15 -9 0 -16 -5 -16 -11 0 -6 -6 -9 -12 -7 -14 5 -20 48 -7 45 15
-4 69 38 69 53 0 12 2 12 9 2 14 -22 39 11 33 43 -3 19 -7 23 -13 14 -10 -16
-14 -12 -23 24 -6 24 -4 27 18 27 14 0 27 4 31 10 3 5 12 7 20 4 9 -4 19 4 26
19 6 14 17 23 23 21 7 -3 18 7 24 21 7 15 8 25 2 25 -6 0 -10 9 -10 20 0 15
-7 20 -26 20 -20 0 -25 4 -20 17 4 9 1 20 -6 25 -8 6 1 7 24 3 34 -5 37 -3 55
32 10 21 27 40 37 42 11 1 31 14 45 27 14 13 33 24 43 24 32 0 48 12 48 39 0
46 32 84 88 104 28 10 53 26 57 35 5 13 8 14 15 3 7 -12 13 -12 39 -2 26 11
29 17 25 41 -6 26 -4 27 31 24 20 -1 42 -8 50 -14 11 -9 15 -7 20 12 5 20 11
24 36 20 19 -3 28 -9 25 -17 -3 -8 4 -11 20 -9 13 1 22 -2 19 -6 -3 -5 -1 -12
5 -15 8 -5 7 -11 -1 -21 -7 -9 -8 -14 -3 -13 5 1 22 1 38 0 25 -1 27 -3 15
-18 -10 -11 -10 -14 -1 -9 11 6 14 0 11 -20 -2 -17 27 -21 49 -6 24 16 24 15
17 -7 -5 -16 -4 -21 4 -17 6 4 11 15 11 26 0 14 5 17 22 12 13 -3 19 -1 15 5
-4 6 -21 10 -38 9 -16 -1 -32 1 -35 6 -4 7 10 12 19 6 1 -1 12 4 25 11 12 6
22 8 22 4 0 -4 14 -8 32 -7 25 1 34 6 41 27 8 25 22 32 55 28 6 -1 12 6 12 15
0 10 5 14 16 10 8 -3 12 -2 9 3 -11 18 15 22 40 5 20 -13 28 -14 40 -4 18 15
105 20 105 5 0 -5 7 -2 15 8 11 15 21 17 47 12 l33 -7 -22 21 c-26 25 -27 30
-10 53 15 18 35 24 57 15 58 -23 106 -34 115 -26 13 13 35 11 33 -3 -2 -7 3
-12 10 -10 7 1 12 -5 10 -15 -3 -14 4 -17 42 -14 25 1 42 0 39 -3 -3 -3 -17
-7 -32 -8 -14 -1 -24 -5 -21 -9 2 -4 -3 -12 -11 -19 -8 -7 -13 -15 -11 -19 3
-4 0 -13 -6 -21 -8 -12 -9 -12 -4 3 3 9 1 17 -4 17 -10 0 -12 -7 -14 -49 -1
-13 -7 -26 -14 -29 -11 -3 -12 0 -3 17 9 17 9 21 -1 19 -7 -2 -12 3 -10 9 2
15 -14 17 -23 4 -3 -5 -1 -13 5 -16 8 -5 7 -11 -1 -21 -10 -13 -15 -12 -36 7
-12 13 -23 18 -23 13 0 -12 40 -38 63 -40 9 -1 22 -2 27 -3 6 0 10 -8 10 -17
0 -8 5 -12 10 -9 6 4 8 10 5 15 -3 4 2 13 10 20 8 7 12 16 9 21 -3 5 1 6 9 3
8 -3 21 9 32 31 11 19 24 35 28 35 5 0 5 -6 -1 -12 -13 -17 3 -58 23 -58 13 0
19 12 16 33 0 4 6 7 15 7 8 0 13 4 10 8 -2 4 5 9 17 9 17 2 18 0 7 -7 -10 -6
-3 -8 22 -7 20 1 34 5 31 10 -2 4 5 7 16 7 10 0 25 2 33 3 7 2 10 2 5 0 -4 -3
-5 -9 -1 -14 5 -8 -10 -13 -29 -10 -5 1 -6 -3 -2 -9 3 -6 10 -8 15 -5 5 3 11
1 15 -5 3 -5 1 -10 -6 -10 -7 0 -21 -8 -32 -17 -18 -16 -20 -16 -14 -1 3 10 0
19 -9 22 -23 9 -24 8 -24 -13 0 -22 -52 -36 -79 -22 -10 6 -23 5 -34 -1 -10
-5 -30 -7 -45 -4 -17 4 -22 3 -14 -2 18 -12 5 -82 -15 -82 -8 0 -12 -4 -9 -9
3 -4 -5 -6 -17 -4 -14 3 -29 -2 -36 -11 -13 -16 -6 -22 22 -17 4 1 3 -7 -3
-18 -5 -11 -18 -20 -28 -20 -9 0 -26 -2 -37 -5 -11 -2 -23 -5 -27 -5 -5 -1 -8
-14 -8 -31 0 -38 -18 -39 -31 -1 -12 33 -38 48 -51 29 -10 -16 -7 -79 4 -95 5
-7 5 -14 -2 -18 -5 -3 -10 -15 -10 -26 0 -20 -7 -22 -54 -19 -27 2 -28 0 -23
-29 7 -35 -13 -47 -60 -34 -50 13 -100 -6 -89 -33 10 -26 -15 -25 -39 0 -13
14 -29 26 -35 26 -14 0 -8 -83 8 -102 9 -11 4 -20 -23 -41 -21 -17 -32 -33
-29 -42 4 -8 1 -15 -5 -15 -15 0 -14 -27 2 -33 6 -3 2 -6 -10 -6 -15 -1 -23
-7 -23 -19 0 -14 -8 -17 -36 -16 -31 2 -37 -2 -50 -30 -9 -17 -29 -39 -46 -49
-20 -11 -28 -22 -24 -33 7 -19 -21 -31 -37 -15 -9 9 -9 14 2 20 7 5 10 14 7
20 -10 16 -26 4 -26 -19 0 -10 -12 -28 -27 -39 -24 -18 -25 -20 -8 -21 29 0 5
-18 -35 -25 -28 -5 -37 -2 -51 16 l-17 23 4 -32 c3 -29 -10 -46 -18 -22 -2 6
-13 4 -26 -6 -16 -11 -20 -20 -14 -26 6 -6 8 -16 6 -23 -7 -16 12 -29 21 -15
8 13 25 13 25 0 0 -6 -10 -15 -22 -20 -22 -8 -22 -9 5 -9 18 -1 27 4 27 15 0
8 5 12 10 9 6 -4 8 -11 5 -16 -8 -12 -3 -11 30 1 16 6 23 14 19 22 -4 6 -3 8
3 5 6 -4 57 18 114 47 57 30 205 99 329 154 331 147 432 196 507 245 108 70
233 213 224 256 -1 7 1 11 6 8 5 -3 13 6 20 19 6 13 8 24 3 24 -4 0 -11 -7
-14 -17 -6 -15 -8 -14 -20 2 -10 14 -10 25 -3 46 9 22 14 26 32 19 16 -6 22
-4 22 6 0 16 -42 19 -52 4 -3 -5 -11 -7 -19 -4 -7 3 -13 -2 -13 -10 0 -8 4
-13 9 -10 4 3 8 1 8 -4 0 -19 -36 -18 -55 1 -17 17 -18 19 -2 14 14 -5 16 -3
9 11 -5 9 -7 22 -5 29 2 6 -1 15 -8 19 -8 5 -9 3 -4 -6 5 -9 4 -11 -4 -6 -9 6
-9 11 0 23 10 12 10 16 -1 23 -8 5 -18 6 -24 3 -5 -3 -6 -1 -2 5 4 6 13 9 21
5 11 -4 13 -1 9 11 -3 9 -1 16 5 16 6 0 10 -6 9 -12 -3 -12 10 -14 90 -9 13 0
20 5 17 11 -3 5 1 20 9 32 9 12 16 19 16 14 0 -5 9 3 21 18 17 21 20 39 19 98
-1 97 15 250 29 276 23 43 41 46 353 44 l297 -1 13 35 c7 21 18 34 28 32 28
-4 71 12 64 24 -5 8 -2 9 9 5 12 -4 17 -1 17 10 0 14 2 14 15 -3 13 -17 14
-17 15 -1 0 9 7 17 16 17 8 0 12 -4 9 -10 -7 -12 15 -13 30 -2 16 11 16 32 0
32 -9 0 -12 6 -8 16 3 8 12 13 20 9 11 -3 13 -1 9 10 -3 8 -1 15 5 15 5 0 12
-6 15 -14 8 -20 34 -29 34 -11 0 8 -6 15 -14 15 -7 0 -16 9 -19 20 -3 11 -2
18 3 15 4 -3 13 2 20 10 7 8 19 15 27 15 8 0 11 5 7 12 -5 7 -3 8 6 3 7 -4 16
-2 21 6 7 12 9 11 9 -1 0 -13 1 -13 10 0 6 10 10 11 10 3 0 -7 5 -13 11 -13 5
0 7 5 4 10 -3 6 2 10 13 10 10 0 21 3 25 6 9 10 -4 34 -19 34 -8 0 -14 4 -14
10 0 5 -16 12 -35 16 -19 3 -35 11 -35 18 0 6 -7 3 -14 -7 -12 -16 -13 -15
-13 8 0 13 6 30 13 36 8 6 14 9 14 5 0 -3 8 2 18 12 10 9 16 26 14 37 -3 11
-1 17 3 12 5 -4 19 3 32 15 21 19 26 20 34 8 7 -11 8 -8 3 12 -3 15 -1 35 6
45 10 16 10 16 5 -4 -7 -26 19 -33 29 -8 3 8 1 15 -4 15 -6 0 -10 7 -10 16 0
12 4 14 13 7 15 -12 54 -27 44 -17 -4 4 -1 14 5 22 10 11 9 17 -6 27 -10 8
-15 18 -12 24 4 5 2 13 -4 16 -6 4 -9 14 -6 23 2 10 8 33 11 52 6 29 5 33 -6
23 -22 -21 -33 -14 -13 8 19 21 20 23 22 107 2 40 5 51 15 46 9 -6 9 -5 0 7
-7 9 -10 32 -7 58 5 39 4 42 -15 36 -15 -5 -21 -2 -21 9 0 9 -7 16 -16 16 -9
0 -12 5 -8 12 13 21 14 62 1 70 -19 12 -24 10 -30 -12 -5 -21 -31 -27 -42 -10
-5 8 -11 7 -21 -1 -20 -17 -29 -4 -29 42 0 37 -2 40 -22 36 -28 -5 -31 9 -3
18 11 3 20 12 20 18 0 12 57 62 72 62 4 0 15 10 23 23 9 12 27 22 39 22 27 0
41 33 25 61 -13 25 -12 27 13 31 25 4 37 28 14 28 -23 0 -20 42 4 68 22 23 45
28 54 13 11 -16 48 0 41 18 -14 35 -8 49 19 44 24 -5 44 21 26 32 -6 4 -10 11
-10 17 0 7 16 9 44 5 25 -4 46 -2 48 2 2 5 28 11 58 12 l55 4 3 -35 c5 -65 19
-80 75 -80 28 0 47 -3 44 -7 -4 -3 -3 -11 3 -18 11 -13 2 -55 -12 -55 -6 0 -7
11 -3 28 5 20 4 24 -5 16 -6 -6 -15 -28 -20 -48 -8 -35 -7 -36 21 -36 16 0 32
6 35 14 4 10 12 7 32 -13 15 -14 36 -30 46 -36 13 -8 18 -25 20 -75 2 -63 3
-65 28 -62 14 1 31 -4 38 -13 7 -8 18 -15 24 -15 6 0 20 -9 29 -21 14 -15 15
-24 7 -34 -8 -10 -5 -19 16 -38 28 -26 54 -26 54 0 0 10 -6 12 -19 8 -30 -9
-34 12 -6 31 18 12 24 22 20 35 -4 12 -1 19 7 19 21 0 49 -69 38 -91 -8 -14
-4 -18 17 -24 17 -4 29 -2 35 7 5 9 10 10 16 2 4 -6 24 -14 44 -17 30 -4 42
-1 63 19 14 13 32 24 39 24 8 0 16 11 18 24 4 19 1 22 -14 18 -10 -2 -28 4
-39 14 -20 18 -21 18 -39 -3 l-17 -22 -13 39 c-7 22 -20 41 -29 43 -9 3 -4 5
11 6 14 0 28 -4 30 -10 2 -6 12 -10 22 -8 17 4 17 6 -3 31 -26 32 -26 45 -3
52 19 6 91 -14 137 -38 34 -18 65 -21 65 -6 0 6 11 10 24 10 18 0 29 -9 40
-32 9 -17 16 -35 16 -40 0 -13 -28 -9 -33 5 -3 6 -6 0 -6 -15 -1 -27 1 -28 44
-28 25 0 45 3 45 8 0 4 30 8 67 10 44 1 73 7 82 17 10 10 11 15 3 15 -6 0 -16
9 -22 20 -8 15 -4 29 21 70 28 46 36 51 97 70 155 45 165 47 201 35 41 -14 84
-8 77 11 -3 8 1 14 10 14 8 0 13 4 10 9 -3 5 15 14 40 20 39 10 48 9 58 -4 10
-13 14 -13 40 0 15 8 35 15 42 15 18 0 51 19 77 44 14 14 29 17 58 13 35 -5
68 11 54 25 -3 2 11 9 30 15 32 10 35 9 35 -9 0 -33 -19 -61 -34 -48 -17 13
-48 -30 -36 -50 20 -32 130 47 130 93 0 18 -5 27 -16 27 -37 0 2 20 71 36 41
10 75 22 75 28 0 25 -64 118 -157 231 -154 186 -476 613 -591 785 -143 211
-168 242 -332 415 -277 291 -540 582 -620 688 -82 108 -126 150 -190 182 -116
58 -199 158 -244 293 -61 183 -156 266 -318 279 -94 7 -123 28 -195 142 -31
47 -78 109 -104 138 -59 62 -63 92 -20 133 30 27 102 52 191 65 25 4 83 23
129 42 151 62 243 80 586 113 116 11 253 29 305 40 52 12 161 34 241 50 80 16
168 37 195 46 89 30 188 88 248 147 33 32 71 60 85 63 14 3 121 9 236 14 238
11 345 25 345 46 0 8 5 13 11 11 6 -1 19 12 29 28 9 17 25 31 36 33 10 2 26 6
34 9 8 4 35 8 60 9 29 2 50 10 60 22 12 14 22 17 43 11 15 -4 30 -3 33 3 3 5
12 7 19 4 8 -3 31 13 51 34 21 21 42 36 47 33 17 -10 55 7 53 24 -1 12 7 19
25 21 19 2 28 -3 37 -23 11 -23 10 -29 -10 -45 -13 -10 -20 -22 -16 -26 4 -4
14 -1 23 6 12 10 15 10 15 -1 0 -8 -9 -20 -19 -26 -15 -10 -20 -9 -25 2 -3 8
-13 15 -22 15 -10 0 -14 -5 -10 -15 3 -8 1 -15 -5 -15 -6 0 -8 -4 -5 -9 3 -5
-1 -12 -10 -15 -8 -3 -12 -11 -9 -17 5 -6 12 -3 21 10 17 23 46 18 37 -6 -5
-12 -3 -14 7 -8 8 5 18 1 28 -11 13 -18 14 -18 7 4 -7 25 6 29 25 7 11 -14 15
-14 33 2 15 13 21 15 24 6 3 -7 9 -13 14 -13 13 0 11 44 -3 58 -18 18 19 27
56 14 18 -7 43 -12 57 -12 18 0 20 -3 10 -9 -24 -15 20 -30 87 -30 74 1 100
15 83 48 -11 21 -11 21 8 9 12 -7 21 -20 21 -28 0 -9 9 -23 20 -33 11 -9 20
-24 20 -33 0 -12 9 -15 43 -12 l42 3 -3 -34 c-2 -22 3 -38 14 -46 11 -8 15
-19 11 -30 -5 -12 -3 -16 5 -12 8 3 13 -4 13 -19 0 -13 -3 -24 -7 -24 -4 0
-11 -18 -14 -40 -4 -26 -16 -48 -32 -60 -13 -11 -21 -20 -17 -20 5 0 0 -9 -10
-20 -10 -11 -21 -17 -25 -15 -4 3 -13 -2 -20 -11 -11 -12 -10 -22 5 -52 20
-41 37 -124 23 -116 -4 3 -8 -4 -8 -15 0 -20 -14 -34 -37 -37 -6 -1 -23 -10
-37 -21 -30 -22 -33 -67 -4 -60 11 3 18 0 18 -8 0 -7 7 -16 16 -19 22 -8 26
-8 19 5 -10 15 44 57 66 52 11 -3 21 1 25 11 4 10 18 16 39 16 19 0 45 4 59
10 22 8 25 6 28 -18 2 -19 8 -27 21 -26 9 1 17 -2 17 -7 0 -5 18 -9 40 -9 35
0 42 -4 51 -26 15 -42 3 -67 -32 -62 -16 3 -30 0 -32 -5 -2 -6 -20 -10 -40 -9
-28 1 -37 -3 -37 -15 0 -12 3 -13 14 -4 10 9 15 8 20 -4 3 -8 12 -15 21 -15 8
0 15 -4 15 -9 0 -6 12 -6 31 -1 29 8 30 8 27 -17 -3 -22 1 -26 29 -29 18 -2
36 -4 40 -5 21 -4 33 2 33 16 0 19 17 19 27 0 7 -12 16 -8 51 23 23 21 42 46
42 55 0 26 45 50 80 43 41 -8 38 5 -16 80 -118 167 -138 283 -88 510 26 117
29 146 29 314 -1 219 -6 246 -118 605 -92 293 -93 299 -73 368 29 99 93 137
341 198 115 29 298 36 406 15 122 -23 216 -20 337 9 137 33 214 33 278 -1 64
-34 177 -115 297 -214 84 -70 97 -78 106 -62 9 16 10 16 16 -1 5 -11 11 -14
19 -9 9 8 110 10 126 3 3 -1 -6 -7 -19 -12 l-25 -10 35 -17 c21 -11 37 -14 41
-8 4 7 21 4 44 -7 l37 -18 65 70 c62 68 67 71 111 71 98 0 151 55 154 160 1
60 2 61 27 55 68 -16 118 -17 147 -1 31 15 73 85 73 119 0 15 12 17 80 17 90
0 123 11 140 49 7 14 16 99 21 191 8 163 17 218 46 274 24 47 94 116 143 141
25 12 52 31 61 41 35 41 122 290 156 444 14 67 18 127 18 280 -1 184 -3 200
-29 285 -88 289 -295 546 -601 748 -269 177 -535 261 -735 231z m-8366 -1229
c7 -19 -31 -45 -67 -45 -34 0 -28 13 17 41 37 23 42 23 50 4z m920 -101 c15
-39 -10 -144 -34 -144 -21 0 -28 106 -10 141 13 23 36 25 44 3z m-190 -110 c4
-11 1 -14 -11 -12 -9 2 -18 9 -21 16 -6 18 25 15 32 -4z m57 -321 c6 -16 15
-55 21 -88 15 -95 -26 -199 -51 -132 -17 43 -20 105 -9 177 11 75 22 87 39 43z
m-3007 -133 c-7 -7 -44 39 -44 54 1 6 12 -2 25 -19 13 -16 22 -32 19 -35z
m1264 -127 c11 -22 24 -103 17 -103 -12 0 -45 67 -45 93 0 31 15 36 28 10z
m437 -103 c3 -5 1 -10 -4 -10 -6 0 -11 5 -11 10 0 6 2 10 4 10 3 0 8 -4 11
-10z m6618 -1080 c-6 -17 -8 -28 -3 -25 5 3 11 1 15 -5 7 -11 46 -14 43 -2 -4
19 15 39 32 35 12 -3 19 1 22 13 3 15 6 13 21 -10 23 -35 10 -54 -39 -54 -24
0 -44 -8 -62 -25 -23 -21 -39 -25 -107 -29 -55 -3 -93 -11 -122 -26 -23 -12
-48 -19 -56 -17 -8 4 -19 -5 -27 -20 -8 -15 -23 -31 -33 -37 -16 -8 -18 -7
-12 11 3 11 2 29 -4 38 -9 17 -10 17 -16 1 -4 -9 -17 -19 -31 -22 -13 -4 -24
-11 -24 -16 0 -6 -7 -10 -15 -10 -8 0 -15 -4 -15 -10 0 -5 -7 -10 -15 -10 -8
0 -17 -11 -21 -25 -3 -14 -10 -25 -16 -25 -5 0 -6 6 -2 13 4 6 -2 4 -13 -6
-19 -17 -23 -17 -58 -2 -33 13 -40 13 -54 1 -9 -7 -29 -12 -46 -11 -16 1 -40
-4 -52 -11 -19 -12 -23 -12 -32 4 -10 16 -10 16 -11 0 0 -21 -16 -24 -24 -5
-3 9 -9 7 -19 -5 -8 -10 -22 -18 -31 -18 -9 0 -16 -8 -16 -20 0 -11 -6 -20
-14 -20 -7 0 -25 -9 -40 -21 -14 -11 -26 -17 -26 -12 0 4 -5 1 -10 -7 -6 -10
-10 -11 -10 -2 0 6 -9 12 -21 12 -12 0 -17 -4 -13 -11 5 -8 1 -8 -14 0 -17 9
-25 7 -41 -10 -18 -19 -23 -20 -38 -8 -10 7 -15 9 -11 5 8 -9 -63 -46 -87 -46
-7 0 -24 -10 -39 -21 -15 -12 -30 -19 -33 -16 -3 4 -20 -1 -37 -10 -17 -10
-36 -16 -42 -15 -6 1 -17 -5 -24 -13 -7 -8 -19 -15 -27 -15 -8 0 -11 -4 -8
-10 8 -13 -50 -13 -75 0 -15 8 -17 6 -13 -9 3 -13 -2 -21 -16 -26 -12 -3 -21
-10 -21 -14 0 -16 -53 -31 -86 -25 -30 5 -34 9 -28 28 4 11 23 35 43 51 57 48
91 88 91 108 0 26 24 47 54 47 29 0 33 9 14 29 -10 10 -10 15 -1 18 8 3 9 12
3 29 -8 21 -7 24 11 24 12 0 30 10 40 23 l20 22 -6 -22 c-9 -33 -9 -82 -1 -91
4 -4 13 0 19 8 7 8 24 21 40 29 15 8 27 20 27 26 0 7 17 31 39 53 21 21 40 45
43 52 2 7 15 14 28 15 14 1 41 9 60 17 37 15 50 13 114 -16 44 -20 98 -14 89
10 -3 8 0 14 6 14 6 0 11 -6 11 -12 0 -8 3 -9 8 -3 4 6 17 16 30 23 20 11 23
10 32 -10 5 -13 9 -18 10 -13 1 6 5 -1 9 -14 6 -23 7 -22 34 18 16 24 26 49
23 57 -9 22 14 63 35 61 14 -1 17 -7 13 -24 -8 -30 6 -29 40 2 15 14 31 23 36
20 4 -3 26 7 48 21 28 18 39 32 37 45 -2 11 0 19 6 19 5 0 9 -4 9 -9 0 -5 9
-11 20 -14 11 -3 20 -1 20 4 0 5 5 9 10 9 6 0 10 -7 10 -15 0 -8 9 -15 20 -15
10 0 23 -6 27 -14 11 -18 91 -58 103 -51 5 3 11 -4 15 -15 8 -25 16 -25 38 0
9 11 14 20 11 20 -3 0 -3 4 1 10 3 5 20 1 40 -10 24 -14 35 -16 36 -7 3 27 -3
63 -12 74 -7 7 -6 14 1 18 5 3 10 -1 10 -9 0 -18 25 -22 35 -6 4 6 11 8 16 5
5 -3 6 1 3 9 -5 13 1 15 35 12 23 -2 44 1 47 6 4 6 11 5 17 -1 8 -8 8 -19 0
-41z m-4843 -10 c0 -5 -9 -14 -20 -20 -22 -12 -27 -1 -8 18 14 14 28 16 28 2z
m3920 -130 c0 -5 -5 -10 -11 -10 -5 0 -7 5 -4 10 3 6 8 10 11 10 2 0 4 -4 4
-10z m-4200 -207 c-1 -13 -27 -43 -32 -38 -2 3 -26 -2 -52 -11 -26 -9 -49 -14
-51 -12 -10 10 81 68 107 68 15 0 28 -3 28 -7z m584 -1022 c33 -37 3 -80 -47
-67 -21 5 -27 12 -27 34 0 51 42 69 74 33z m-229 -150 c0 -8 -4 -16 -10 -18
-16 -5 -38 14 -30 26 9 16 40 9 40 -8z m-1062 -1296 c-7 -27 -13 -61 -13 -76
0 -43 -12 -89 -23 -89 -6 0 -7 22 -2 63 4 34 9 82 10 107 1 25 5 56 9 69 l8
23 12 -23 c9 -19 9 -35 -1 -74z m397 28 c0 -41 -3 -54 -10 -43 -11 17 -13 61
-4 84 11 28 14 18 14 -41z m-3 -150 c-2 -16 -4 -5 -4 22 0 28 2 40 4 28 2 -13
2 -35 0 -50z m60 51 c5 -15 -20 -24 -37 -14 -7 4 -9 13 -5 19 8 14 37 11 42
-5z m143 -104 c0 -20 -2 -22 -10 -10 -5 8 -10 26 -10 40 0 20 2 22 10 10 5 -8
10 -26 10 -40z m-49 19 c22 -22 21 -37 -4 -53 -29 -18 -75 43 -50 67 12 13 33
7 54 -14z m-166 -41 c1 -18 4 -40 8 -48 4 -8 -2 -26 -13 -40 l-20 -25 0 55 c0
88 21 136 25 58z m212 -144 c-3 -3 -12 -4 -19 -1 -8 3 -5 6 6 6 11 1 17 -2 13
-5z m-639 -197 c3 -14 -1 -18 -20 -15 -12 2 -24 11 -26 21 -3 14 1 18 20 15
12 -2 24 -11 26 -21z m252 -8 c0 -5 -7 -9 -15 -9 -15 0 -20 12 -9 23 8 8 24
-1 24 -14z m535 -19 c3 -5 1 -10 -4 -10 -6 0 -11 5 -11 10 0 6 2 10 4 10 3 0
8 -4 11 -10z m163 -12 c-6 -18 -28 -21 -28 -4 0 9 7 16 16 16 9 0 14 -5 12
-12z m-423 -118 c3 -6 -5 -10 -19 -10 -14 0 -28 5 -31 10 -3 6 5 10 19 10 14
0 28 -4 31 -10z m-207 -66 c4 -33 -11 -24 -23 15 -5 17 -4 22 6 19 8 -3 15
-18 17 -34z m-1398 -34 c0 -5 -4 -10 -10 -10 -5 0 -10 5 -10 10 0 6 5 10 10
10 6 0 10 -4 10 -10z m307 -72 c-3 -7 -5 -2 -5 12 0 14 2 19 5 13 2 -7 2 -19
0 -25z m1177 -103 c6 -17 4 -18 -18 -9 -20 8 -21 24 -2 24 8 0 16 -7 20 -15z
m326 -45 c0 -5 -4 -10 -10 -10 -5 0 -10 5 -10 10 0 6 5 10 10 10 6 0 10 -4 10
-10z m-350 -69 c-12 -23 -69 -66 -76 -58 -6 6 67 76 79 77 4 0 3 -9 -3 -19z
m-210 -41 c0 -20 -2 -22 -10 -10 -5 8 -10 26 -10 40 0 20 2 22 10 10 5 -8 10
-26 10 -40z m526 -91 c1 -23 -1 -27 -11 -19 -10 8 -13 37 -6 59 4 13 16 -15
17 -40z m-266 -5 c0 -9 -7 -14 -17 -12 -25 5 -28 28 -4 28 12 0 21 -6 21 -16z
m-350 -9 c0 -8 -7 -15 -15 -15 -16 0 -20 12 -8 23 11 12 23 8 23 -8z m-95 -23
c0 -18 -20 -15 -23 4 -3 10 1 15 10 12 7 -3 13 -10 13 -16z m153 -54 c16 -16
15 -47 -2 -54 -21 -8 -56 14 -56 36 0 28 37 39 58 18z m430 0 c20 -20 14 -28
-21 -28 -21 0 -41 8 -52 20 -18 20 -17 20 21 20 22 0 45 -5 52 -12z m299 -50
c-3 -8 -6 -5 -6 6 -1 11 2 17 5 13 3 -3 4 -12 1 -19z m-1007 -58 c0 -5 -7 -10
-15 -10 -8 0 -15 5 -15 10 0 6 7 10 15 10 8 0 15 -4 15 -10z m87 -62 c-3 -8
-6 -5 -6 6 -1 11 2 17 5 13 3 -3 4 -12 1 -19z m-149 -20 c3 -22 -1 -28 -15
-28 -11 0 -24 5 -31 12 -7 7 -12 20 -12 31 0 14 6 18 28 15 21 -2 28 -9 30
-30z m270 -21 c3 -23 0 -27 -22 -27 -31 0 -40 14 -26 40 16 29 44 21 48 -13z
m-367 -70 c-1 -12 -15 -9 -19 4 -3 6 1 10 8 8 6 -3 11 -8 11 -12z m247 -19
c-6 -18 -28 -21 -28 -4 0 9 7 16 16 16 9 0 14 -5 12 -12z m411 1 c54 -19 32
-59 -24 -45 -30 8 -44 34 -24 47 8 5 14 9 15 9 1 0 15 -5 33 -11z m-549 -30
c0 -5 -7 -9 -15 -9 -15 0 -20 12 -9 23 8 8 24 -1 24 -14z m561 -34 c30 -2 49
-12 49 -27 0 -6 -14 -8 -37 -4 -51 9 -93 26 -93 38 0 6 11 7 28 3 15 -4 39 -8
53 -10z m-861 -70 c0 -8 -7 -15 -15 -15 -16 0 -20 12 -8 23 11 12 23 8 23 -8z
m-290 -70 c0 -28 -24 -34 -34 -9 -8 20 1 34 20 34 8 0 14 -10 14 -25z m478
-42 c-4 -22 -22 -20 -26 1 -2 10 3 16 13 16 10 0 15 -7 13 -17z m1092 -33 c0
-5 -4 -10 -10 -10 -5 0 -10 5 -10 10 0 6 5 10 10 10 6 0 10 -4 10 -10z m-514
-70 c4 -23 3 -32 -3 -25 -6 6 -13 26 -17 45 -4 23 -3 31 4 24 5 -5 13 -25 16
-44z m-810 -27 c-10 -10 -19 5 -10 18 6 11 8 11 12 0 2 -7 1 -15 -2 -18z
m4134 -18 c0 -28 -3 -29 -31 -14 -16 8 -18 13 -8 25 18 22 39 17 39 -11z
m-4280 -45 c0 -5 -5 -10 -11 -10 -5 0 -7 5 -4 10 3 6 8 10 11 10 2 0 4 -4 4
-10z m940 -10 c0 -5 -2 -10 -4 -10 -3 0 -8 5 -11 10 -3 6 -1 10 4 10 6 0 11
-4 11 -10z m-1040 -99 c-1 -25 -10 -71 -21 -101 -12 -30 -20 -75 -20 -100 1
-25 -4 -53 -11 -63 -29 -39 -73 17 -49 61 7 14 8 23 1 27 -6 4 -8 11 -4 16 3
5 9 7 14 4 4 -3 10 40 12 96 3 93 5 102 28 121 23 19 25 19 37 2 7 -10 13 -38
13 -63z m-375 29 c3 -5 1 -10 -4 -10 -6 0 -11 5 -11 10 0 6 2 10 4 10 3 0 8
-4 11 -10z m115 -7 c0 -5 -4 -15 -10 -23 -11 -18 -25 -7 -17 15 6 15 27 21 27
8z m1780 -47 c0 -53 -16 -70 -22 -23 -4 40 1 67 13 67 5 0 9 -20 9 -44z m-250
9 c0 -9 -9 -15 -25 -15 -16 0 -25 6 -25 15 0 9 9 15 25 15 16 0 25 -6 25 -15z
m-530 -4 c0 -6 -4 -13 -10 -16 -5 -3 -10 1 -10 9 0 9 5 16 10 16 6 0 10 -4 10
-9z m847 -27 c-9 -9 -28 6 -21 18 4 6 10 6 17 -1 6 -6 8 -13 4 -17z m1718 6
c13 -14 5 -19 -78 -49 -50 -19 -236 -95 -411 -168 -242 -101 -321 -130 -328
-121 -4 7 -8 33 -8 58 l0 46 228 93 c378 154 404 162 499 159 57 -2 87 -8 98
-18z m-3599 -15 c18 -28 10 -53 -12 -34 -13 10 -20 59 -9 59 2 0 12 -11 21
-25z m-76 -25 c0 -5 -4 -10 -10 -10 -5 0 -10 5 -10 10 0 6 5 10 10 10 6 0 10
-4 10 -10z m1030 -10 c0 -24 -26 -38 -42 -22 -16 16 -2 42 22 42 13 0 20 -7
20 -20z m1130 6 c0 -3 -4 -8 -10 -11 -5 -3 -10 -1 -10 4 0 6 5 11 10 11 6 0
10 -2 10 -4z m-1190 -26 c9 -16 8 -22 -5 -26 -23 -9 -45 3 -45 26 0 27 36 27
50 0z m-470 -24 c0 -8 -7 -19 -15 -26 -12 -10 -16 -9 -21 4 -7 18 13 49 27 40
5 -3 9 -11 9 -18z m516 -54 c-9 -9 -37 8 -31 18 5 8 11 7 21 -1 8 -6 12 -14
10 -17z m-55 -7 c-1 -15 -24 -12 -29 3 -3 9 2 13 12 10 10 -1 17 -7 17 -13z
m-923 -9 c-7 -8 -15 -12 -17 -11 -5 6 10 25 20 25 5 0 4 -6 -3 -14z m1130 -38
c-6 -18 -28 -21 -28 -4 0 9 7 16 16 16 9 0 14 -5 12 -12z m-885 -85 c6 -33 3
-38 -18 -30 -19 8 -20 57 -1 57 7 0 16 -12 19 -27z m3417 3 c0 -2 -7 -7 -16
-10 -8 -3 -12 -2 -9 4 6 10 25 14 25 6z m-2347 -25 c5 -5 7 -17 3 -27 -5 -13
-15 -15 -48 -11 -50 7 -81 32 -58 48 18 12 88 5 103 -10z m3192 9 c-3 -5 -10
-10 -16 -10 -5 0 -9 5 -9 10 0 6 7 10 16 10 8 0 12 -4 9 -10z m-3605 -20 c0
-5 -2 -10 -4 -10 -3 0 -8 5 -11 10 -3 6 -1 10 4 10 6 0 11 -4 11 -10z m130 -5
c11 -13 8 -15 -18 -15 -31 0 -47 11 -35 24 11 11 40 6 53 -9z m3314 0 c-7 -16
-24 -21 -24 -6 0 8 7 13 27 20 1 1 0 -6 -3 -14z m756 -5 c0 -5 -4 -10 -10 -10
-5 0 -10 5 -10 10 0 6 5 10 10 10 6 0 10 -4 10 -10z m-620 -21 c0 -5 -16 -9
-35 -9 -19 0 -35 4 -35 8 0 4 16 8 35 9 19 1 35 -3 35 -8z m123 -106 c-7 -2
-21 -2 -30 0 -10 3 -4 5 12 5 17 0 24 -2 18 -5z m-3658 -43 c0 -13 -6 -25 -12
-27 -9 -3 -13 6 -13 27 0 21 4 30 13 28 6 -3 12 -15 12 -28z m2585 -1 c0 -6
-4 -7 -10 -4 -5 3 -10 11 -10 16 0 6 5 7 10 4 6 -3 10 -11 10 -16z m1110 17
c0 -3 -4 -8 -10 -11 -5 -3 -10 -1 -10 4 0 6 5 11 10 11 6 0 10 -2 10 -4z
m-4970 -50 c0 -20 -19 -31 -32 -18 -6 6 -7 15 -4 21 10 16 36 13 36 -3z m651
-9 c-13 -13 -26 -3 -16 12 3 6 11 8 17 5 6 -4 6 -10 -1 -17z m149 14 c0 -6 -4
-13 -10 -16 -5 -3 -10 1 -10 9 0 9 5 16 10 16 6 0 10 -4 10 -9z m284 -29 c-2
-9 13 -71 35 -137 22 -66 39 -121 37 -122 -3 -4 -370 -32 -373 -29 -1 1 6 20
17 41 49 97 3 158 -132 172 -35 3 -81 14 -103 23 l-40 17 131 7 c170 9 308 24
312 35 2 5 23 7 47 4 25 -2 46 0 50 7 10 15 24 3 19 -18z m2858 -14 c-7 -7
-12 -8 -12 -2 0 14 12 26 19 19 2 -3 -1 -11 -7 -17z m-2422 -34 c0 -8 -4 -12
-10 -9 -5 3 -10 13 -10 21 0 8 5 12 10 9 6 -3 10 -13 10 -21z m-860 -69 c0 -8
-7 -15 -15 -15 -8 0 -15 7 -15 15 0 8 7 15 15 15 8 0 15 -7 15 -15z m870 -21
c0 -16 -16 -19 -25 -4 -8 13 4 32 16 25 5 -4 9 -13 9 -21z m-734 5 c9 -16 -12
-33 -31 -25 -14 5 -15 9 -5 21 15 18 26 19 36 4z m-191 -64 c0 -22 -31 -33
-47 -17 -17 17 -1 44 24 40 15 -2 23 -10 23 -23z m-115 -25 c0 -5 -4 -10 -10
-10 -5 0 -10 5 -10 10 0 6 5 10 10 10 6 0 10 -4 10 -10z m1425 -11 c0 -7 -8
-15 -17 -17 -18 -3 -25 18 -11 32 10 10 28 1 28 -15z m-1225 -69 c0 -15 -7
-20 -25 -20 -27 0 -32 9 -13 28 18 18 38 14 38 -8z m1238 -4 c3 -12 -1 -17
-10 -14 -7 3 -15 13 -16 22 -3 12 1 17 10 14 7 -3 15 -13 16 -22z m-432 -71
c9 -31 14 -58 11 -61 -9 -10 -38 42 -44 80 -9 56 13 43 33 -19z m-906 5 c0 -5
-4 -10 -10 -10 -5 0 -10 5 -10 10 0 6 5 10 10 10 6 0 10 -4 10 -10z m1280 -21
c0 -11 -4 -17 -10 -14 -5 3 -10 13 -10 21 0 8 5 14 10 14 6 0 10 -9 10 -21z
m2139 -26 c0 -25 -1 -26 -9 -8 -12 27 -12 35 0 35 6 0 10 -12 9 -27z m-2969
-73 c0 -5 -4 -10 -10 -10 -5 0 -10 5 -10 10 0 6 5 10 10 10 6 0 10 -4 10 -10z
m320 -10 c0 -5 -7 -10 -15 -10 -8 0 -15 5 -15 10 0 6 7 10 15 10 8 0 15 -4 15
-10z m-270 -10 c0 -5 -4 -10 -10 -10 -5 0 -10 5 -10 10 0 6 5 10 10 10 6 0 10
-4 10 -10z m-37 -54 c3 -11 -30 -32 -38 -25 -3 4 -3 14 1 23 7 17 33 19 37 2z
m-353 -11 c0 -8 -4 -15 -10 -15 -5 0 -10 7 -10 15 0 8 5 15 10 15 6 0 10 -7
10 -15z m-610 -250 c10 -12 10 -15 -4 -15 -9 0 -16 7 -16 15 0 8 2 15 4 15 2
0 9 -7 16 -15z m943 -29 c4 -10 0 -12 -14 -9 -10 3 -25 1 -32 -5 -13 -11 -67
-5 -67 8 0 9 20 13 76 18 20 2 34 -3 37 -12z m-1546 -38 c15 -6 35 -10 43 -9
10 2 8 -2 -5 -13 -11 -8 -21 -10 -23 -5 -2 5 -8 9 -14 9 -5 0 -16 7 -24 15
-18 18 -14 19 23 3z m97 -109 c-8 -13 -24 -1 -24 18 0 13 3 13 15 3 8 -7 12
-16 9 -21z m2356 -52 c0 -5 -4 -5 -10 -2 -5 3 -10 14 -10 23 0 15 2 15 10 2 5
-8 10 -19 10 -23z m-2103 -114 c-4 10 -1 17 7 17 8 0 11 -10 8 -30 -4 -25 -7
-28 -23 -19 -10 5 -19 20 -19 32 1 22 1 22 17 2 13 -16 15 -17 10 -2z m2933
-83 c0 -5 -2 -10 -4 -10 -3 0 -8 5 -11 10 -3 6 -1 10 4 10 6 0 11 -4 11 -10z
m-1690 -34 c0 -20 -39 -46 -67 -46 -27 0 -29 11 -5 32 32 29 72 36 72 14z
m1425 4 c19 -8 19 -9 -2 -9 -12 -1 -25 4 -28 9 -7 12 2 12 30 0z m-3015 -20
c12 -8 11 -10 -7 -10 -13 0 -23 5 -23 10 0 13 11 13 30 0z m3341 -7 c13 -16
12 -17 -2 -5 -14 10 -18 10 -24 -5 -5 -10 -7 -25 -6 -33 1 -8 -5 -4 -13 9 -13
24 -14 24 -24 4 -6 -11 -8 -23 -5 -27 3 -3 -1 -6 -10 -6 -9 0 -17 5 -17 10 0
18 39 50 53 44 8 -3 17 2 20 10 8 20 11 20 28 -1z m-301 -8 c12 -14 8 -16 -24
-13 -33 2 -36 4 -20 15 23 17 29 16 44 -2z m189 -42 c-1 -17 -3 -21 -6 -10 -2
9 -9 17 -14 17 -6 0 -7 5 -4 10 12 19 25 10 24 -17z m-3019 -19 c0 -16 -26
-19 -35 -4 -4 6 -4 18 -1 27 5 12 9 13 21 3 8 -7 15 -19 15 -26z m1938 -9 c-3
-3 -9 2 -12 12 -6 14 -5 15 5 6 7 -7 10 -15 7 -18z m-968 -5 c0 -5 -4 -10 -10
-10 -5 0 -10 5 -10 10 0 6 5 10 10 10 6 0 10 -4 10 -10z m1170 6 c0 -3 -4 -8
-10 -11 -5 -3 -10 -1 -10 4 0 6 5 11 10 11 6 0 10 -2 10 -4z m710 -6 c0 -5 -5
-10 -11 -10 -5 0 -7 5 -4 10 3 6 8 10 11 10 2 0 4 -4 4 -10z m236 -3 c4 -4 -4
-7 -19 -7 -14 0 -29 5 -32 10 -7 12 39 9 51 -3z m-61 -7 c3 -6 -1 -7 -9 -4
-18 7 -21 14 -7 14 6 0 13 -4 16 -10z m-961 -27 c3 -7 -1 -13 -9 -13 -8 0 -15
-4 -15 -10 0 -5 5 -10 10 -10 6 0 10 -4 10 -10 0 -6 -9 -6 -24 0 -13 5 -26 7
-29 4 -2 -3 -4 6 -4 20 0 32 50 48 61 19z m36 2 c-7 -8 -16 -12 -21 -9 -13 8
-1 24 18 24 13 0 13 -3 3 -15z m740 8 c0 -5 -5 -15 -10 -23 -8 -12 -10 -11
-10 8 0 12 5 22 10 22 6 0 10 -3 10 -7z m301 -10 c13 -15 12 -15 -8 -4 -24 12
-29 21 -14 21 5 0 15 -7 22 -17z m-240 -6 c-6 -8 -8 -17 -4 -20 3 -4 -1 -7
-10 -7 -20 0 -21 6 -4 25 15 18 33 20 18 2z m184 -7 c3 -5 1 -10 -4 -10 -6 0
-11 5 -11 10 0 6 2 10 4 10 3 0 8 -4 11 -10z m-985 -12 c0 -4 -7 -8 -15 -8 -8
0 -15 4 -15 8 0 5 7 9 15 9 8 0 15 -4 15 -9z m790 -62 c0 -3 -4 -8 -10 -11 -5
-3 -10 -1 -10 4 0 6 5 11 10 11 6 0 10 -2 10 -4z m16 -48 c18 -23 18 -23 -1
-6 -17 16 -19 16 -32 0 -13 -15 -13 -14 -3 6 6 12 12 22 14 22 2 0 11 -10 22
-22z m-2186 -22 c0 -18 -17 -29 -30 -21 -8 5 -7 11 1 21 15 18 29 18 29 0z
m2240 -17 c0 -5 -9 -9 -20 -9 -22 0 -27 16 -7 23 15 5 27 -1 27 -14z m-1543
-71 c-2 -7 -11 -12 -20 -12 -9 1 -20 -11 -26 -28 -9 -25 -13 -28 -25 -19 -19
16 -12 33 22 54 32 20 55 22 49 5z m1643 -68 c0 -14 -7 -20 -22 -20 -21 1 -21
2 -5 11 9 6 15 14 12 20 -4 5 -1 9 4 9 6 0 11 -9 11 -20z m-1892 -18 c7 -5 10
-16 7 -24 -8 -19 -38 -29 -56 -17 -11 6 -9 12 5 28 21 23 25 24 44 13z m112
-7 c0 -8 -4 -15 -10 -15 -5 0 -10 7 -10 15 0 8 5 15 10 15 6 0 10 -7 10 -15z
m-620 -156 c0 -5 -4 -9 -10 -9 -5 0 -10 7 -10 16 0 8 5 12 10 9 6 -3 10 -10
10 -16z m36 -248 c-10 -16 -36 -13 -36 3 0 17 21 27 34 16 4 -5 5 -13 2 -19z
m419 -6 c0 -16 -9 -21 -45 -26 -25 -3 -85 -22 -135 -43 -49 -20 -108 -39 -130
-42 l-40 -5 45 25 c25 14 88 39 140 57 52 17 102 38 110 46 21 20 55 13 55
-12z m65 -14 c0 -6 -4 -13 -10 -16 -5 -3 -10 1 -10 9 0 9 5 16 10 16 6 0 10
-4 10 -9z m90 -15 c0 -2 -7 -9 -15 -16 -13 -11 -14 -10 -9 4 5 14 24 23 24 12z
m-50 -36 c0 -4 -8 -14 -17 -21 -16 -12 -17 -12 -6 2 10 12 10 18 0 28 -9 10
-8 11 6 6 9 -4 17 -11 17 -15z m-42 -75 c-3 -3 -9 2 -12 12 -6 14 -5 15 5 6 7
-7 10 -15 7 -18z m68 -76 c19 -22 19 -22 -3 -10 -24 12 -39 31 -25 31 5 0 17
-10 28 -21z m-811 -11 c-11 -6 -53 -22 -93 -34 -55 -17 -71 -19 -62 -8 7 7 20
14 29 14 9 1 32 9 51 20 39 21 112 29 75 8z m1424 -12 c-2 -2 -18 -10 -36 -18
-29 -14 -31 -14 -30 1 1 11 11 17 35 18 19 1 33 1 31 -1z m13 -30 c7 4 8 2 4
-4 -11 -18 -26 -14 -25 6 0 10 3 12 6 4 2 -6 10 -9 15 -6z m-1747 -175 c-5
-18 -69 -61 -90 -61 -15 0 -1 40 23 62 46 43 81 43 67 -1z m1010 0 c3 -5 1
-12 -5 -16 -5 -3 -10 1 -10 9 0 18 6 21 15 7z m-848 -128 c2 -6 -6 -17 -18
-23 -17 -10 -24 -9 -36 3 -9 8 -12 20 -8 27 9 14 57 9 62 -7z m977 -18 c-4 -8
-18 -15 -33 -15 -25 1 -25 1 -7 15 26 19 47 19 40 0z m-440 -43 c2 -4 1 -14
-3 -21 -11 -18 -45 -10 -49 12 -3 12 3 17 22 17 14 0 27 -4 30 -8z m-876 -63
c-2 -6 -8 -10 -13 -10 -5 0 -11 4 -13 10 -2 6 4 11 13 11 9 0 15 -5 13 -11z
m536 -15 c13 -5 14 -9 5 -20 -15 -18 -49 -18 -49 -1 0 25 15 32 44 21z m-858
-105 c10 -17 -13 -36 -27 -22 -12 12 -4 33 11 33 5 0 12 -5 16 -11z m924 7 c0
-3 -4 -8 -10 -11 -5 -3 -10 -1 -10 4 0 6 5 11 10 11 6 0 10 -2 10 -4z m520
-100 c0 -2 -7 -6 -15 -10 -8 -3 -15 -1 -15 4 0 6 7 10 15 10 8 0 15 -2 15 -4z
m-680 -206 c0 -5 -5 -10 -11 -10 -5 0 -7 5 -4 10 3 6 8 10 11 10 2 0 4 -4 4
-10z m-1832 -702 c5 -25 -36 -44 -55 -26 -8 8 -11 22 -7 32 9 22 58 18 62 -6z
m345 -119 c14 -22 2 -49 -22 -49 -26 0 -34 15 -27 46 7 28 32 29 49 3z m-1566
-15 c3 -8 1 -20 -4 -25 -12 -12 -48 14 -39 29 10 17 36 15 43 -4z m-107 -149
c0 -8 -7 -15 -15 -15 -8 0 -15 7 -15 15 0 8 7 15 15 15 8 0 15 -7 15 -15z
m728 -182 c-4 -22 -22 -20 -26 1 -2 10 3 16 13 16 10 0 15 -7 13 -17z m-708
-34 c13 -7 13 -8 -1 -14 -21 -8 -72 12 -64 25 7 11 35 6 65 -11z m-134 -146
c-10 -10 -19 5 -10 18 6 11 8 11 12 0 2 -7 1 -15 -2 -18z m1705 8 c4 -3 10
-16 13 -28 10 -33 -23 -48 -66 -30 -76 32 -72 79 5 70 23 -3 45 -8 48 -12z
m-1463 -48 c-2 -10 -10 -18 -18 -18 -8 0 -16 8 -18 18 -2 12 3 17 18 17 15 0
20 -5 18 -17z m324 -128 c0 -5 -5 -11 -11 -13 -6 -2 -11 4 -11 13 0 9 5 15 11
13 6 -2 11 -8 11 -13z m1558 -156 c19 -6 60 -14 90 -17 46 -6 55 -10 55 -27 0
-16 -6 -19 -25 -17 -14 2 -56 7 -94 10 -50 5 -72 12 -80 25 -8 14 -8 20 4 27
8 5 15 10 15 10 0 0 16 -5 35 -11z m-1600 -89 c0 -5 -4 -10 -10 -10 -5 0 -10
5 -10 10 0 6 5 10 10 10 6 0 10 -4 10 -10z m1671 -60 c24 0 33 -18 19 -35 -18
-22 -50 -19 -50 4 0 11 -5 23 -10 26 -6 4 -7 11 -4 17 4 6 10 6 17 -1 6 -6 19
-11 28 -11z m-218 -234 c7 -19 -28 -50 -48 -43 -15 6 -21 38 -8 50 12 12 51 7
56 -7z m1163 -2 c34 -14 36 -17 20 -26 -22 -12 -87 4 -106 27 -11 13 -8 15 18
15 16 0 47 -7 68 -16z m-1483 -151 c9 -9 -22 -43 -40 -43 -17 0 -17 37 0 43
18 8 33 8 40 0z"/>
<path d="M13840 12929 c0 -5 5 -7 10 -4 6 3 10 8 10 11 0 2 -4 4 -10 4 -5 0
-10 -5 -10 -11z"/>
<path d="M12740 12509 c0 -5 5 -7 10 -4 6 3 10 8 10 11 0 2 -4 4 -10 4 -5 0
-10 -5 -10 -11z"/>
<path d="M4742 13994 c-39 -27 -23 -104 23 -104 26 0 55 33 55 62 0 18 -33 58
-48 58 -4 0 -18 -7 -30 -16z"/>
<path d="M3488 13971 c-71 -28 -112 -57 -166 -116 -61 -66 -81 -122 -89 -240
-5 -74 -3 -97 12 -124 17 -34 17 -34 -10 -55 -24 -19 -26 -25 -16 -43 11 -22
20 -26 79 -38 18 -4 55 -22 82 -40 63 -42 150 -75 199 -75 54 0 157 34 216 71
91 56 123 96 150 182 65 206 5 372 -165 459 -70 35 -81 38 -160 37 -58 0 -100
-6 -132 -18z"/>
<path d="M4354 13766 c-39 -39 -42 -58 -14 -103 22 -37 53 -48 111 -40 37 5
39 4 39 -22 0 -54 67 -109 119 -96 63 16 86 70 60 143 -9 27 -17 32 -56 38
-26 4 -54 2 -69 -5 -23 -10 -24 -9 -24 30 0 89 -99 122 -166 55z"/>
<path d="M4080 13764 c-31 -36 38 -115 74 -85 9 7 16 26 16 41 0 49 -61 80
-90 44z"/>
<path d="M5345 13749 c-19 -17 -35 -37 -35 -44 0 -7 14 -25 31 -39 60 -51 129
-23 129 52 0 65 -67 81 -125 31z"/>
<path d="M4743 13633 c-7 -2 -13 -15 -13 -28 0 -16 7 -24 24 -27 28 -6 46 8
46 33 0 23 -28 34 -57 22z"/>
<path d="M5767 13472 c-24 -26 -21 -47 8 -70 47 -38 102 8 77 63 -14 31 -61
34 -85 7z"/>
<path d="M4457 13403 c-12 -12 -7 -41 7 -46 19 -7 40 18 32 38 -6 15 -28 20
-39 8z"/>
<path d="M4140 13181 c-14 -27 -2 -51 25 -51 28 0 43 34 25 55 -17 21 -37 19
-50 -4z"/>
<path d="M6181 13127 c-39 -20 -48 -42 -27 -66 24 -26 77 -28 99 -3 23 25 21
37 -9 61 -31 24 -32 25 -63 8z"/>
<path d="M16410 13020 c8 -5 29 -10 45 -10 17 0 37 5 45 10 11 7 -3 10 -45 10
-42 0 -56 -3 -45 -10z"/>
<path d="M17010 12873 c-26 -9 -60 -46 -60 -64 0 -9 16 -40 36 -69 20 -29 42
-68 50 -86 17 -40 58 -48 69 -14 3 11 11 20 16 20 6 0 15 13 20 30 6 16 15 27
20 24 5 -3 9 2 9 10 0 9 5 16 10 16 18 0 10 33 -16 67 -45 59 -104 84 -154 66z"/>
<path d="M3785 12813 c-51 -13 -63 -65 -19 -85 50 -23 107 37 74 78 -13 14
-20 15 -55 7z"/>
<path d="M6182 12568 c-31 -31 6 -88 58 -88 28 0 50 22 50 49 0 38 -80 67
-108 39z"/>
<path d="M5417 12290 c-38 -30 -38 -77 0 -86 48 -12 91 34 70 76 -16 33 -37
36 -70 10z"/>
<path d="M3704 12258 c-31 -15 -51 -55 -38 -76 18 -28 49 -26 73 4 24 30 27
54 9 72 -14 14 -16 14 -44 0z"/>
<path d="M18356 12084 c-11 -16 -15 -29 -9 -35 11 -11 29 6 35 31 2 8 8 18 13
22 6 5 4 8 -5 8 -8 -1 -23 -12 -34 -26z"/>
<path d="M6082 12078 c-31 -31 2 -108 46 -108 47 0 58 66 16 99 -30 24 -45 26
-62 9z"/>
<path d="M8985 11871 c-3 -12 -15 -26 -26 -32 -12 -6 -18 -17 -15 -24 2 -7 -2
-16 -10 -19 -8 -3 -14 -11 -14 -19 0 -15 78 -77 97 -77 8 0 23 -9 35 -20 12
-11 28 -20 36 -20 8 0 12 -6 10 -12 -2 -7 5 -23 16 -34 21 -22 21 -22 79 -4
69 22 97 44 97 78 0 20 -2 22 -15 12 -8 -6 -20 -10 -27 -8 -7 3 -2 12 13 23
l26 19 -117 73 c-132 82 -174 97 -185 64z"/>
<path d="M14160 11824 c0 -8 6 -11 15 -8 8 4 15 9 15 13 0 4 -7 8 -15 8 -8 0
-15 -6 -15 -13z"/>
<path d="M3385 11795 c-28 -27 -31 -47 -11 -64 19 -16 63 3 77 33 25 54 -22
76 -66 31z"/>
<path d="M18082 11720 c5 -15 -16 -43 -42 -54 -8 -3 -3 -4 13 -2 15 2 27 -1
27 -5 0 -5 -4 -9 -9 -9 -5 0 -11 -9 -14 -20 -3 -12 0 -20 8 -20 16 0 37 25 28
33 -3 4 -1 7 5 7 6 0 21 18 32 40 17 32 18 40 6 40 -8 0 -18 -5 -21 -10 -5 -8
-12 -7 -23 2 -13 11 -14 11 -10 -2z"/>
<path d="M5795 11458 c-18 -61 -10 -78 40 -78 29 0 40 36 19 67 -16 25 -52 31
-59 11z"/>
<path d="M4992 11437 c-19 -23 -23 -61 -9 -81 29 -40 77 18 57 69 -10 27 -31
33 -48 12z"/>
<path d="M4231 11427 c-16 -20 -23 -70 -13 -86 15 -21 51 -3 69 34 13 28 14
37 3 50 -15 19 -44 20 -59 2z"/>
<path d="M5512 11398 c-28 -28 7 -106 42 -92 23 9 29 53 11 80 -17 26 -35 30
-53 12z"/>
<path d="M7191 11359 c-1 -20 -4 -52 -8 -70 -6 -31 -5 -33 11 -20 28 23 30 5
7 -58 -20 -55 -21 -68 -12 -163 6 -57 22 -162 36 -233 14 -72 29 -183 32 -249
l6 -118 45 5 c54 6 82 28 62 51 -7 9 -22 16 -35 16 -31 0 -35 7 -23 41 8 23
13 27 27 20 9 -5 45 -7 79 -4 39 4 62 2 62 -4 0 -15 -21 -29 -52 -37 -16 -3
-28 -13 -28 -21 0 -8 3 -15 6 -15 11 0 50 23 72 44 l23 21 19 -25 c18 -24 21
-24 52 -11 18 8 56 15 85 16 44 1 53 -2 63 -21 25 -46 91 -57 116 -19 22 34
35 22 28 -25 -6 -36 -5 -39 21 -46 21 -5 31 -2 40 10 7 9 16 16 20 16 4 0 2
-6 -4 -14 -7 -8 -8 -17 -3 -20 11 -7 46 64 43 88 -4 26 8 66 19 66 6 0 10 -12
10 -26 l0 -26 38 33 c36 32 37 32 40 11 4 -26 19 -28 50 -6 22 15 62 83 62
104 0 22 -51 78 -76 84 -21 6 -25 11 -20 30 7 28 -27 56 -67 56 -14 0 -30 7
-37 16 -10 11 -23 14 -50 9 -77 -13 -121 81 -64 138 28 28 72 42 104 32 13 -4
20 -2 20 7 0 22 -14 35 -53 52 -55 22 -88 112 -53 140 10 8 12 18 5 34 -9 23
-25 26 -125 22 -28 -1 -61 4 -72 11 -18 11 -25 9 -55 -14 -20 -15 -42 -27 -51
-27 -17 0 -32 -63 -50 -202 -13 -104 -26 -124 -26 -41 l0 61 -39 -5 c-55 -7
-82 1 -130 41 -30 25 -37 36 -26 40 17 6 20 43 6 65 -5 8 -19 15 -30 16 -20 1
-92 92 -111 139 -7 17 -9 14 -9 -15z m640 -105 c11 -10 19 -29 19 -44 0 -22
-8 -31 -34 -44 -52 -25 -86 -20 -122 15 l-33 32 27 34 c26 33 29 34 76 29 27
-3 57 -13 67 -22z m-211 -124 c0 -5 -7 -10 -15 -10 -8 0 -15 5 -15 10 0 6 7
10 15 10 8 0 15 -4 15 -10z m80 -115 c0 -8 -4 -15 -10 -15 -5 0 -10 7 -10 15
0 8 5 15 10 15 6 0 10 -7 10 -15z m-352 -19 c3 -12 -1 -17 -10 -14 -7 3 -15
13 -16 22 -3 12 1 17 10 14 7 -3 15 -13 16 -22z m62 4 c0 -5 -4 -10 -10 -10
-5 0 -10 5 -10 10 0 6 5 10 10 10 6 0 10 -4 10 -10z m208 -48 c2 -14 -2 -22
-11 -22 -17 0 -30 27 -21 41 9 16 29 4 32 -19z m-57 -149 c10 -17 10 -27 1
-47 -15 -33 -29 -33 -43 -2 -9 18 -8 33 0 57 6 17 12 50 12 73 l1 41 8 -50 c4
-28 13 -61 21 -72z m79 92 c0 -8 -4 -15 -10 -15 -5 0 -7 7 -4 15 4 8 8 15 10
15 2 0 4 -7 4 -15z m175 -65 c3 -5 1 -10 -4 -10 -6 0 -11 5 -11 10 0 6 2 10 4
10 3 0 8 -4 11 -10z m-27 -43 c3 -23 0 -27 -22 -27 -21 0 -26 5 -26 23 0 13 3
27 7 31 15 14 38 0 41 -27z m195 11 c6 -22 -16 -58 -35 -58 -18 0 -20 31 -4
55 20 31 32 32 39 3z m-249 -40 c18 -25 22 -88 6 -88 -14 0 -40 55 -40 85 0
31 14 32 34 3z m-228 -35 c-10 -10 -19 5 -10 18 6 11 8 11 12 0 2 -7 1 -15 -2
-18z m72 -15 c7 -7 12 -20 12 -31 0 -32 -44 -18 -48 16 -4 29 14 37 36 15z
m382 -218 c0 -5 -2 -10 -4 -10 -3 0 -8 5 -11 10 -3 6 -1 10 4 10 6 0 11 -4 11
-10z"/>
<path d="M3937 11352 c-21 -23 -23 -82 -3 -82 40 0 83 51 70 84 -8 22 -47 20
-67 -2z"/>
<path d="M14300 11366 c0 -2 7 -6 15 -10 8 -3 15 -1 15 4 0 6 -7 10 -15 10 -8
0 -15 -2 -15 -4z"/>
<path d="M4400 11273 c-27 -34 -23 -77 7 -81 39 -6 70 67 41 96 -17 17 -24 15
-48 -15z"/>
<path d="M4616 11155 c-7 -20 15 -29 54 -23 17 3 30 1 30 -4 0 -5 5 -6 12 -2
17 11 -29 44 -62 44 -16 0 -30 -7 -34 -15z"/>
<path d="M4765 11160 c3 -5 8 -10 11 -10 2 0 4 5 4 10 0 6 -5 10 -11 10 -5 0
-7 -4 -4 -10z"/>
<path d="M4728 11043 c7 -3 16 -2 19 1 4 3 -2 6 -13 5 -11 0 -14 -3 -6 -6z"/>
<path d="M4340 10946 c0 -2 7 -7 16 -10 8 -3 12 -2 9 4 -6 10 -25 14 -25 6z"/>
<path d="M4397 10900 c-3 -12 2 -20 15 -23 15 -4 17 -3 8 8 -8 10 -8 14 2 17
8 3 7 6 -4 10 -10 4 -18 0 -21 -12z"/>
<path d="M4755 10880 c-7 -12 22 -12 50 0 17 7 15 9 -12 9 -17 1 -35 -3 -38
-9z"/>
<path d="M4830 10865 c0 -9 -6 -12 -15 -9 -8 3 -21 -1 -29 -9 -9 -8 -42 -18
-75 -22 -37 -4 -62 -12 -65 -21 -3 -8 1 -14 9 -14 8 0 15 -7 15 -15 0 -15 -16
-20 -52 -17 -27 2 -68 -16 -68 -30 0 -7 9 -19 20 -26 17 -10 18 -16 10 -32 -8
-14 -8 -26 0 -41 6 -11 9 -25 7 -32 -5 -15 67 -64 105 -72 16 -4 26 -11 22
-16 -3 -5 3 -12 13 -16 10 -4 27 -16 38 -27 15 -16 32 -21 65 -20 78 2 91 4
86 13 -3 4 13 11 37 14 77 11 95 26 117 94 18 59 18 67 4 130 -19 85 -54 155
-73 148 -7 -3 -20 0 -28 6 -11 10 -11 14 -1 20 10 7 10 9 -1 9 -8 0 -20 -8
-27 -17 -10 -15 -16 -16 -32 -6 -11 6 -29 9 -41 6 -12 -3 -21 -1 -21 6 0 6 -4
11 -10 11 -5 0 -10 -7 -10 -15z"/>
<path d="M4445 10803 c-16 -25 -16 -26 0 -20 9 4 20 7 25 7 14 0 19 28 5 34
-7 2 -21 -7 -30 -21z"/>
<path d="M17135 10699 c-11 -17 1 -21 15 -4 8 9 8 15 2 15 -6 0 -14 -5 -17
-11z"/>
<path d="M16427 10433 c-4 -3 -7 -22 -7 -40 l0 -34 -52 2 c-33 2 -53 -2 -56
-9 -2 -7 -13 -12 -24 -12 -15 0 -18 -5 -13 -20 4 -11 2 -20 -4 -20 -6 0 -11 7
-11 16 0 14 -3 14 -15 4 -8 -7 -15 -18 -15 -24 0 -17 -58 -58 -71 -51 -5 4
-26 -1 -45 -10 -19 -9 -43 -13 -54 -10 -15 5 -20 2 -20 -12 0 -15 -2 -15 -10
-3 -7 12 -15 8 -40 -19 -31 -32 -32 -32 -53 -14 -12 10 -24 21 -27 25 -3 3
-37 9 -75 13 -112 11 -123 13 -133 19 -5 3 -14 -5 -20 -19 -10 -23 -75 -51
-92 -40 -4 3 -13 -9 -20 -25 -7 -17 -17 -30 -23 -30 -6 0 -3 -6 8 -13 12 -10
16 -22 13 -41 -4 -20 0 -31 16 -41 11 -8 15 -15 9 -15 -7 0 -15 5 -18 10 -3 6
-11 10 -17 10 -6 0 -1 -9 12 -20 23 -20 20 -23 -22 -23 -10 0 -20 -8 -24 -19
-4 -13 -12 -18 -25 -15 -10 3 -19 1 -19 -3 0 -5 -18 -11 -40 -15 -22 -4 -40
-11 -40 -15 0 -5 -11 -8 -24 -7 -14 1 -26 -2 -28 -8 -1 -5 -14 -22 -28 -37
-14 -14 -30 -32 -37 -40 -32 -35 -118 -79 -131 -66 -13 13 -54 -13 -47 -30 3
-9 0 -10 -15 -2 -11 6 -20 15 -20 20 0 5 -7 7 -15 4 -8 -3 -13 -11 -12 -17 1
-7 -8 -12 -20 -11 -14 0 -25 -7 -29 -18 -3 -10 -12 -18 -20 -18 -8 0 -12 -4
-9 -10 3 -5 -1 -10 -9 -10 -9 0 -16 -5 -16 -11 0 -6 -7 -9 -15 -6 -8 4 -17 2
-20 -3 -4 -6 -15 -10 -26 -10 -10 0 -19 -4 -19 -8 0 -13 -48 -33 -55 -23 -7
13 -40 2 -65 -21 -15 -14 -29 -18 -47 -13 -17 4 -32 0 -45 -12 -11 -10 -23
-17 -27 -16 -13 5 -41 -9 -41 -21 0 -7 -16 -27 -35 -45 -19 -17 -35 -35 -35
-40 0 -4 -11 -6 -25 -3 -14 2 -25 8 -25 13 0 5 -4 9 -9 9 -6 0 -8 -9 -6 -20 3
-14 -2 -20 -16 -20 -10 0 -19 -5 -19 -11 0 -6 -9 -9 -20 -6 -20 5 -20 4 2 -36
31 -56 139 -164 215 -215 89 -60 155 -84 236 -84 85 0 155 32 280 125 85 64
283 181 642 377 344 189 528 307 699 448 112 93 316 291 316 308 0 7 6 14 13
17 16 6 -31 55 -58 62 -45 10 -91 23 -107 30 -10 4 -18 3 -18 -3 0 -6 -10 -8
-21 -5 -13 4 -27 0 -33 -8 -15 -20 -61 -22 -76 -4 -7 8 -17 12 -22 9 -6 -4
-13 -1 -17 5 -4 6 -10 8 -14 4z m248 -33 c3 -5 -1 -10 -9 -10 -9 0 -16 5 -16
10 0 6 4 10 9 10 6 0 13 -4 16 -10z m-985 -230 c0 -5 11 -10 25 -10 l26 0 -23
-23 c-23 -23 -57 -42 -70 -39 -5 1 -8 -5 -8 -14 0 -8 -5 -12 -10 -9 -8 5 -7
11 1 21 6 7 9 21 5 30 -9 22 11 54 34 54 11 0 20 -4 20 -10z"/>
<path d="M6343 7543 c-12 -2 -27 -11 -35 -20 -11 -14 -11 -15 7 -6 11 6 31 16
45 21 26 11 21 12 -17 5z"/>
<path d="M11586 7483 c-12 -12 -5 -23 14 -23 11 0 20 4 20 9 0 11 -26 22 -34
14z"/>
<path d="M10921 7384 c0 -11 3 -14 6 -6 3 7 2 16 -1 19 -3 4 -6 -2 -5 -13z"/>
<path d="M10921 7344 c0 -11 3 -14 6 -6 3 7 2 16 -1 19 -3 4 -6 -2 -5 -13z"/>
<path d="M6515 7110 c-3 -5 -1 -10 4 -10 6 0 11 5 11 10 0 6 -2 10 -4 10 -3 0
-8 -4 -11 -10z"/>
<path d="M6880 6975 c0 -8 4 -15 10 -15 5 0 7 7 4 15 -4 8 -8 15 -10 15 -2 0
-4 -7 -4 -15z"/>
<path d="M6825 6960 c-3 -5 1 -10 10 -10 9 0 13 5 10 10 -3 6 -8 10 -10 10 -2
0 -7 -4 -10 -10z"/>
<path d="M6796 6912 c-2 -4 7 -8 22 -7 15 0 34 -3 43 -9 19 -11 72 1 64 14 -4
6 -12 7 -18 3 -17 -10 -47 -11 -53 -1 -7 10 -51 11 -58 0z"/>
<path d="M6797 6883 c-14 -13 -6 -21 23 -25 30 -4 43 13 20 27 -5 3 -10 1 -10
-4 0 -6 -7 -11 -16 -11 -8 0 -12 5 -9 10 7 11 2 13 -8 3z"/>
<path d="M6064 6828 c3 -18 10 -70 17 -115 7 -54 16 -83 24 -83 7 0 15 9 18
20 3 11 1 20 -4 20 -5 0 -9 5 -9 11 0 6 8 8 18 5 13 -5 21 2 29 25 13 35 10
49 -13 49 -10 0 -13 7 -9 23 4 17 -4 28 -36 50 l-40 28 5 -33z m56 -84 c0 -8
-4 -12 -10 -9 -5 3 -10 10 -10 16 0 5 5 9 10 9 6 0 10 -7 10 -16z"/>
<path d="M6200 6652 c0 -4 4 -14 10 -22 6 -9 5 -17 -3 -23 -8 -6 -7 -7 3 -4 8
2 14 10 12 17 -2 7 2 16 8 20 7 5 4 9 -9 13 -12 3 -21 2 -21 -1z"/>
<path d="M6340 6608 c0 -18 2 -19 18 -7 9 7 18 14 20 15 1 1 -6 4 -18 7 -15 4
-20 0 -20 -15z"/>
<path d="M6241 6601 c-8 -5 -9 -11 -3 -15 5 -3 12 1 16 9 6 17 6 18 -13 6z"/>
<path d="M6685 6540 c3 -5 8 -10 11 -10 2 0 4 5 4 10 0 6 -5 10 -11 10 -5 0
-7 -4 -4 -10z"/>
<path d="M6680 6460 c0 -5 7 -10 15 -10 8 0 15 5 15 10 0 6 -7 10 -15 10 -8 0
-15 -4 -15 -10z"/>
<path d="M6615 6410 c-3 -5 -1 -10 4 -10 6 0 11 5 11 10 0 6 -2 10 -4 10 -3 0
-8 -4 -11 -10z"/>
<path d="M6545 6329 c-4 -6 -5 -12 -2 -15 2 -3 7 2 10 11 7 17 1 20 -8 4z"/>
<path d="M6320 6236 c0 -8 4 -17 9 -20 5 -4 7 3 4 14 -6 23 -13 26 -13 6z"/>
<path d="M9140 6130 c0 -5 5 -10 10 -10 6 0 10 5 10 10 0 6 -4 10 -10 10 -5 0
-10 -4 -10 -10z"/>
<path d="M9259 6098 c-11 -8 -10 -9 4 -4 13 4 17 0 17 -17 0 -18 2 -19 10 -7
8 13 10 13 10 -2 0 -19 24 -18 43 2 10 10 9 11 -2 5 -7 -4 -16 -4 -20 1 -14
20 -48 32 -62 22z"/>
<path d="M9220 6071 c0 -5 -7 -11 -15 -13 -23 -5 -2 -28 31 -34 23 -3 26 -2
14 7 -12 9 -11 10 7 6 13 -3 26 0 30 5 3 7 1 8 -5 4 -11 -6 -16 6 -13 27 0 4
-4 7 -10 7 -6 0 -8 -7 -5 -16 3 -8 2 -12 -4 -9 -6 3 -10 1 -10 -5 0 -6 -5 -8
-10 -5 -8 5 -7 11 1 21 8 10 8 14 0 14 -6 0 -11 -4 -11 -9z"/>
<path d="M8484 5979 c-4 -7 -8 -30 -9 -53 -1 -23 0 -36 2 -31 2 6 19 9 38 7
21 -3 35 0 35 7 0 6 -7 8 -16 4 -14 -5 -14 -3 -3 15 10 16 16 18 22 9 6 -8 7
-8 4 3 -2 8 -11 14 -20 12 -8 -1 -18 7 -22 18 -7 22 -20 26 -31 9z m19 -30
c-9 -9 -12 -7 -10 9 1 14 5 18 11 12 7 -7 6 -14 -1 -21z m17 -24 c-7 -8 -17
-15 -22 -15 -6 0 -5 7 2 15 7 8 17 15 22 15 6 0 5 -7 -2 -15z"/>
<path d="M8456 5963 c-6 -14 -5 -15 5 -6 7 7 10 15 7 18 -3 3 -9 -2 -12 -12z"/>
<path d="M8566 5912 c-3 -5 1 -9 9 -9 8 0 12 4 9 9 -3 4 -7 8 -9 8 -2 0 -6 -4
-9 -8z"/>
<path d="M8500 5882 c0 -5 7 -9 15 -9 8 0 12 4 9 9 -3 4 -9 8 -15 8 -5 0 -9
-4 -9 -8z"/>
<path d="M8540 5881 c0 -10 29 -36 34 -30 1 2 -6 12 -16 22 -10 9 -18 13 -18
8z"/>
<path d="M7946 5722 c-4 -11 -4 -26 0 -35 5 -14 8 -14 20 -2 18 17 18 29 0 44
-11 10 -16 8 -20 -7z"/>
<path d="M7925 5510 c3 -5 8 -10 11 -10 2 0 4 5 4 10 0 6 -5 10 -11 10 -5 0
-7 -4 -4 -10z"/>
<path d="M7830 5470 c0 -27 17 -34 41 -17 20 14 19 15 -10 25 -27 10 -31 9
-31 -8z"/>
<path d="M7840 5155 c0 -8 7 -15 16 -15 14 0 14 3 4 15 -7 8 -14 15 -16 15 -2
0 -4 -7 -4 -15z"/>
<path d="M8285 5040 c-3 -5 -1 -10 5 -10 6 0 8 -4 5 -10 -3 -6 1 -7 10 -4 12
5 13 9 4 20 -14 17 -16 17 -24 4z"/>
<path d="M8260 4990 c0 -5 7 -7 15 -4 8 4 15 8 15 10 0 2 -7 4 -15 4 -8 0 -15
-4 -15 -10z"/>
<path d="M8300 4981 c0 -7 -4 -9 -10 -6 -5 3 -10 1 -10 -4 0 -6 4 -11 9 -11
13 0 25 20 17 27 -3 4 -6 1 -6 -6z"/>
<path d="M7436 4275 c-13 -20 -13 -24 -1 -29 9 -3 15 1 15 10 0 8 4 13 8 10 4
-2 13 -1 20 3 8 4 5 10 -8 18 -15 10 -21 8 -34 -12z"/>
<path d="M7375 4260 c-3 -5 3 -10 14 -10 12 0 21 5 21 10 0 6 -6 10 -14 10 -8
0 -18 -4 -21 -10z"/>
<path d="M4262 3573 l-52 -37 -25 24 c-30 28 -31 25 -4 -36 30 -72 58 -84 83
-35 9 16 30 43 47 61 27 27 30 33 18 45 -12 12 -22 9 -67 -22z"/>
<path d="M4818 3598 c-34 -12 -37 -28 -5 -28 23 0 47 17 47 32 0 10 -7 9 -42
-4z"/>
</g>
</svg>
